<?xml version="1.0" encoding="utf-8"?>
<!-- Generator: Adobe Illustrator 23.1.0, SVG Export Plug-In . SVG Version: 6.00 Build 0)  -->
<svg version="1.1" id="研究所小_logo_xA0_影像_1_"
	 xmlns="http://www.w3.org/2000/svg" xmlns:xlink="http://www.w3.org/1999/xlink" x="0px" y="0px" viewBox="0 0 5225.7 1000"
	 style="enable-background:new 0 0 5225.7 1000;" xml:space="preserve">
<style type="text/css">
	.st0{fill:#001A6B;}
</style>
<g>
	<path class="st0" d="M134,585.4c-11.6-1.7-21.8-3.3-32-4.5c-2.7-0.3-3.5-1.3-3.8-4c-3.7-37.3-5.2-74.7-3.8-112.1
		c0.8-20.4,2.8-40.8,8.7-60.5c0.6-1.9,1.3-3.8,1.9-5.7c0.2-0.6,0.5-1.2,0.8-1.6c14.7,2.7,29.2,5.3,43.7,7.9c5.9,1,11.8,1.8,17.8,2.4
		c1.4,0.1,4.1-0.7,4.2-1.2c0.1-1.8-0.2-4-1.3-5.4s-3.3-2.2-5.1-3c-11.9-5.2-23.7-10.4-35.6-15.5c-6.9-3-7.5-2.8-12.4,4.4
		c0.5-2.1,0.6-3.1,1-4c3.7-9.2,6.9-18.7,11.4-27.6c7.1-14.1,19.1-18.5,33.8-13.2c15,5.4,24.2,19.1,20.9,33.2
		c-2.2,9.3-6.1,18.2-9.3,27.3c-0.6,1.7-1.2,3.4-2,5.8c6.8,0.7,13.2,1.4,19.5,1.9c59.1,4.5,117.8,2.4,174.6-16.7
		c22.1-7.5,43.3-17.7,64.9-26.7c51.4-21.4,104.2-38,159.1-47.6c40.6-7,81.4-10.2,122.7-8.8c57.1,1.9,112.5,12.3,166.7,30.2
		c4.9,1.6,7.2,4.2,8.8,8.8c17.1,48.7,27.6,98.5,25.3,150.5c-0.5,12.4-2.6,24.7-3.9,37c-15.6-4.5-30-9-44.6-12.8
		c-36.1-9.4-72.9-14.9-110-18c-37.2-3.1-74.5-3.3-111.7-0.7c-52.7,3.7-104.6,12.3-155.4,27c-17.3,5-33.9,12.7-51,18.7
		C391.6,567,344.2,578,295.5,584c-35.9,4.4-71.9,6.3-108,4.8c-4.8-0.2-7.1,0.8-6.9,6.1c0.1,2.6-0.9,5.2-1.7,7.7
		c-2.5,7.7-5,15.4-7.7,23c-4.5,12.3-16.8,19.1-32.4,18.1c-12-0.7-23.6-10.8-26.5-23c-3.4-14.2,3.5-27.6,17.1-33.2
		C130.6,587,131.7,586.5,134,585.4z M572.3,346.1c1.8,0.2,3.7,0.4,5.7,0.7c1.6,8.3,3.2,16.6,4.8,25.1c-2.4,0.7-4.2,1.3-6.1,1.8
		c0,0.4,0.1,0.9,0.1,1.3c2.1,0,4.2,0,7.6,0c-0.5,5.8-0.2,11.4-1.7,16.4c-1.5,4.9-5,9.2-7.3,13.4c9.8-3,17.8-15.6,16.3-27.2
		c-0.5-3.7,0.4-5.4,4.2-5.4c1.3,0,2.5-0.5,4.2-0.8c0.4,1.8,0.9,3.4,1.2,4.9c1.2,6.5,2.6,13,3.6,19.6c0.5,3.6,2.6,3.8,5.3,3.2
		c3.7-0.9,3.9-3.4,3.1-6.5c-1.7-7.5-3.3-15.1-5-22.7c4.6-1.1,8.5-2,13.8-3.2c-3.4-2.4-5.8-4-8.3-5.8c-2,2.3-3.7,4.3-5.9,6.9
		c-1.8-8.3-3.3-15.6-5-22.9c-0.8-3.1,0.2-4.3,3.2-4.6c2.2-0.2,4.3-1,7.8-1.9c-3.6-2.4-6-4-9.1-6.1c-1.6,6.4-6.3,7.2-11.2,8
		c-6.2,1-12.4,2.4-18.5,3.8C574,344.3,573.2,345.4,572.3,346.1c-2.8-1.9-5.6-3.9-9.1-6.2c-2.5,7.8-9.8,6.9-15.4,8.9
		c0.1,0.5,0.1,0.9,0.2,1.4c2,0.1,4.1,0.2,7.1,0.3c-0.8,9.3-1.7,18.7-2.6,29.3c1.3-2.1,2-3.2,3.4-5.4c1.4,8.7,2.3,15.8,3.8,22.7
		c0.3,1.5,2.6,2.6,4.1,3.8c1.1-1.7,2.7-3.3,3.2-5.2c0.4-1.8-0.5-3.9-0.8-5.8c0.3-0.4,0.6-0.7,0.8-1.1c1.2,0.9,3.1,1.5,3.5,2.7
		c1,2.4,1.4,4.9,4.9,3.7c3.4-1.2,3.1-3.4,2.4-6.4c-1.9-7.7-3.4-15.4-5.2-23.5c-2.7-0.5-5.9-4.1-8.8,0.9c-0.3,0.6-2.3,0.8-3.1,0.4
		c-0.7-0.4-1.2-1.9-1-2.9c0.3-2.4,1-4.8,1.6-7.3C563.2,347.7,563.2,347.7,572.3,346.1z M347,452.2c-4.6,6.3-8.7,12-12.8,17.7
		c0.2,0.2,0.4,0.4,0.6,0.5c1.8-1,3.5-2,5.4-3.2c0.7,6.4-0.1,7.4-7.7,10.2c-1.1-8.6-2.2-17-3.5-26.2c-1.1-0.4-3.2-1.2-5.3-2
		c-1.2,1.2-2.3,2.9-3.4,3c-2.1,0.2-5.9-0.2-6.1-1.1c-1.1-4.7-2.9-9.6-0.3-14.6c1-1.8,1.2-4,2-6.7c-3.9-0.5-7.2-0.8-10-1.2
		c-1.5,12.2-2.8,23.8-4.3,35.7c1.7-2.5,3.3-4.8,5.5-7.9c0.2,1.9,0.3,2.7,0.4,3.5c1.6,10.8,3,21.7,4.9,32.5c0.2,1.4,2.7,3.3,4.1,3.3
		c2.5,0,4.7-1.5,4-4.9c-0.9-4.4-1.6-8.8-2.3-13.2c-1.2-7.5-2.4-14.9-3.5-22c1.9-0.5,3.2-1.2,4.4-1c1.2,0.3,3,1.3,3.2,2.3
		c1.5,8,3.2,16,3.9,24.1c0.3,4.2,2,6.7,5.4,9.2c3-5.2,5.9-10.2,9.5-16.3c0.6,5.5,0.9,9.5,1.7,13.3c0.3,1.5,1.8,3.8,2.8,3.8
		c1.9,0,4.6-0.7,5.5-2.2c2.9-4.3,6.4-5.1,11.1-2.3c1.2,0.7,3.6,0.3,5-0.4c1-0.5,1.9-2.6,1.7-3.8c-0.9-6.4-2-12.8-3.3-19.1
		c-0.4-1.8-1.2-4-2.5-5c-2.1-1.5-4.3-1.8-7,0.6c-2,1.8-5.7,1.7-8.7,2.5c3.2-12,13.6-11.1,23.2-13.5c-3.6-2.5-5.9-4.2-8.4-5.9
		c-1.9,2.3-3.4,4.2-4.9,6.1c-0.3-0.2-0.7-0.4-1-0.7c3.1-5.2,6.1-10.3,9.4-15.8c-2.2-0.7-3.7-1.2-5.3-1.7c-1.5-0.4-3.1-0.8-4.7-1.2
		c-0.9,2.3-1.5,4.1-2,5.3c-2.5,0-4.4,0-6.8,0c-0.2-2.4,0.5-5.9-0.9-8c-1.2-1.7-4.9-1.5-8.2-2.4c0.7,5.7,1.2,9.8,1.7,13.7
		c-2.8,0.7-4.9,1.3-7,1.8c0.1,0.4,0.1,0.7,0.2,1.1c2.5,0,4.9,0,7.6,0c0.4,3.1,0.9,5.9,1.2,8.6c0,0.4-0.3,1.2-0.6,1.2
		c-2.4,0.7-4.8,1.2-7.2,1.7c-0.4,0.1-0.9,0.3-1.3,0.5c0.2,0.6,0.4,1.1,0.6,1.7C337.2,453.5,341.4,452.9,347,452.2z M149.3,593.8
		c-9.7,0.8-18.2,2.5-25.8,7.6c-6.4,4.2-9.8,10-8.3,17.7c1.5,7.9,6.4,13.1,14.3,14.8c12,2.5,23.1-0.4,33.1-7.2
		c5.7-3.9,8.8-9.6,7.4-16.8c-1.5-7.4-5.8-12.6-13.2-14.7C154,594.5,151.2,594.2,149.3,593.8z M173.8,392.4c8.5-10.5,8.8-22.5,1-31.9
		c-4.7-5.7-11.1-8.9-18.1-10.9c-14.4-4-27.5,4.7-29.3,19.5c-0.1,1.2,0.9,3.3,1.9,3.7C144.1,379.5,158.8,385.9,173.8,392.4z
		 M537.9,397.2c-14.9,0.4-26.4-4.8-36.6-14.9c9.5-3.5,18.4-6.8,27.2-10c-0.1-0.5-0.1-0.9-0.2-1.4c-3.6-1.4-7.2-2.9-11.4-4.6
		c-1.6,12.3-12.1,10.9-20,14.9c-1.6-6.2-2.8-11.7-4.5-17c-0.4-1.3-2.1-2.9-3.4-3c-2.1-0.1-4.3,0.8-6.7,1.4
		c2.6,7.4,4.9,14.1,7.4,21.1c-9.1,3.3-17.8,6.5-26.4,9.7c0.1,0.4,0.2,0.8,0.3,1.2c7,0.6,12.7-4.9,19.8-5.1
		c0.8,13.4-3.4,25.6-7.7,37.8c9-8.8,13.7-19.9,17.8-32.7c3.5,10.3,6.5,19.4,9.6,28.5c1.6,4.8,4.2,5.7,7.7,2.1
		c1.2-1.2,1.5-4.2,0.9-5.9c-4.1-11.6-8.6-23.1-13-34.7c6.2,11.5,15.5,19.1,27.8,22.9c1.4,0.4,3.8,0.2,4.7-0.7
		C533.4,404.2,535.2,401.1,537.9,397.2z M160.9,485.3c-0.3-0.6-0.5-1.3-0.8-1.9c-2.1-0.2-4.1-0.4-6.2-0.5
		c-12.8-0.8-25.5-1.6-38.3-2.4c-3.3-0.2-7.1,0.3-9.8-1.2c-2.5-1.4-3.7-5-5.4-7.6c-1.9,2.6-2.2,17.4,0.4,21.7
		c0.5-1.9,0.4-3.6,1.2-4.6c1.2-1.5,2.9-3.6,4.4-3.6c11.5,0.3,23,1.1,35.9,1.8c-2.1,1.7-2.9,2.4-3.8,3.1
		c-10.9,8.2-21.6,16.6-32.8,24.4c-5.2,3.6-8.5,7.5-7.6,14.2c0.4,2.7,0.1,5.5,0.1,8.2c0.6,0,1.1,0.1,1.7,0.1c0.4-0.8,0.9-1.6,1.1-2.4
		c1.7-7,3.9-8.8,11.1-8.5c11.3,0.6,22.6,1.2,33.8,2.1c8.5,0.6,8.5,0.8,10.5,8.7c0,0.2,0.6,0.2,1.7,0.7c0-7.3,0-14.4,0-21.6
		c-0.8,0.2-1,0.2-1.1,0.3c-0.3,0.4-0.7,0.8-0.7,1.3c0,6-3.8,6.6-8.5,6.2c-7.1-0.6-14.2-1.1-21.4-1.6c-4-0.3-8.1-0.5-13.6-0.8
		C129.8,508.7,145.4,497,160.9,485.3z M134,429.7c0.5,0.2,0.9,0.4,1.4,0.5c0.5-0.5,1.4-0.9,1.5-1.5c1-4.7,4.3-5.1,8-4.3
		c4.9,1,9.8,1.9,14.5,3.4c1.6,0.5,3.5,2.5,3.9,4.1c2.6,9.1-2.5,19.3-11.3,23c-12.3,5.3-29.6,1.2-38.5-8.7c-7.8-8.7-6.5-29.3,10.6-32
		c1.4-0.2,2.7-1,4-1.5c-0.1-0.5-0.2-1-0.3-1.5c-6.3-0.8-12.6-1.7-19-2.5c-0.3,0.4-0.6,0.7-0.9,1.1c4.1,2.7,3,5.3,1.2,8.5
		c-9.5,17-3.9,36.1,13.1,45.8c18.1,10.3,38.2,2.4,43.9-17.6c1.3-4.7,1.8-9.8,1.9-14.7c0.2-11-1.4-12.2-11.9-14.8
		c-6.5-1.6-15.7,0.5-16.7-10.8c-0.4,0.2-0.9,0.5-1.3,0.7C136.7,414.4,135.3,422.1,134,429.7z M772.8,331.3c-0.3,2.9-0.4,5.8-0.8,8.6
		c-2.6,18.6-2.1,38.6-23.2,50c15.5-3.3,25.9-14.6,29.4-31.1c0.9-4.3,2.7-5.6,7.2-3.5c-1.4,11.5-2.9,23-4.3,34.5
		c-0.3,2.8-1.1,5.9,3.3,6.2c3.7,0.2,7.1,0,7.2-5c0.1-2.7,0.3-5.3,0.5-8c0.7-8.9,1.5-17.8,2.2-27.2c3.5,0,6.5,0,10.5,0
		c-3.1-3.4-5.4-5.9-8.2-8.9c-4.5,6-10.2,5.9-16.9,4.3c0.4-5,0.9-9.8,1.3-14.7c7.4,0.6,14.3,1.2,22,1.9c-1-2-1.5-3.2-2.2-4.3
		c-4.3-6.5-4.3-6.6-11.2-3.1c-5.1,2.6-10.1,5.3-15.2,0.2C774.3,331.3,773.9,331.4,772.8,331.3z M410.4,397.3
		c2.4,4.9,4.4,9.1,6.5,13.5c-3.3,1.9-6.2,3.6-9,5.3c0.3,0.5,0.5,1,0.8,1.4c3.1-1.5,6.2-2.9,9.5-4.5c1.6,3.1,3,5.9,4.5,8.9
		c-3.7,2.1-7,4-10.3,5.9c2.1,1.2,4.4,0.8,5.4,1.7c5.8,5.1,11.3,10.6,17.7,16.6c-4,6.4-8.4,13.4-13.3,21.1c7.7-4.7,13.1-10.2,17.1-17
		c1.4-2.3,2.5-3.1,5.5-2.5c4,0.9,8.2,0.8,12.4,0.9c1.1,0,2.9-0.7,3.2-1.5c1.3-3.5,2-7.1,2.9-10.2c-6.5,1.1-12.9,2.3-19.1,3.4
		c0-9.8,0-18.4,0-26.2c-6.7-5.5-9.8,1.2-14.1,4.3c-1.8-3.6-3.2-6.4-4.7-9.4c6.2-3.3,11.7-6.3,17.3-9.2c-0.1-0.4-0.2-0.8-0.3-1.2
		c-3.4-1-6.8-1.9-10.1-2.9c-2.7,4.1-1.4,10.5-8.5,11c-1.3-2.9-2.4-5.8-3.9-8.5c-0.7-1.2-2.1-2.7-3.3-2.7
		C414.9,395.4,413.1,396.4,410.4,397.3z M229.9,468.2c-0.4,8.2-0.7,15.8-1.3,23.4c-0.3,3.2,0.2,5.4,3.8,5.4c3.1,0,4.6-1.3,4.8-4.8
		c0.8-12,1.8-24,3-35.9c1-9.5,5.5-13.4,14.6-13.2c3.8,0.1,7.6,0.1,11.5,0.2c6,0.2,12.1,0.6,18.1,0.9c0.2-0.4,0.4-0.8,0.6-1.2
		c-2.5-2.7-5-5.3-7.2-7.8c-3.1,2.3-5.6,5.5-8.5,5.8c-6.8,0.8-13.7,0.3-22,0.3c2.8-4,4.6-6.5,6.8-9.7c-3.9-1.6-7.7-3.1-11.9-4.7
		c-1,3.3-2.1,5.8-2.5,8.4c-0.7,4.2-3,5.3-6.9,4.9c-4.1-0.3-8.3-0.1-12.4-0.1c0,0.5-0.1,1.1-0.1,1.6c5.4,0,10.9,0,17.1,0
		c-4.7,13.9-12.9,24.4-21.4,34.7c0.3,0.3,0.7,0.7,1,1C221.2,474.4,225.3,471.5,229.9,468.2z M708.6,372c-0.6,1.4-1.3,2.6-1.7,3.8
		c-2.1,5.5-6.3,7.2-11.8,7.2c-3.5,0-5.3-1.2-5.1-4.9c0.2-4.4,0-8.8,0-14c-4.3-6-10.5,1.5-16.4-0.4c0.8-2.3,1.5-4.6,2.4-7.3
		c-3.6-0.8-6.8-1.5-10.5-2.3c-0.2,4.1-0.3,7.3-0.5,10.9c-5.9,0.8-11.6,1.5-17.2,2.2c0,0.6,0.1,1.1,0.1,1.7c5.6-0.5,11.3-1,17.3-1.5
		c-2.1,12-10.1,18.8-19.1,24.9c12.7-1.2,20.9-8.6,25-19.8c2.1-5.8,5.3-7.1,11.1-6.8c0,5.4,0,10.8,0,16.3c0,6,2.1,8.8,8,9
		c5.3,0.2,10.6-0.3,15.9-0.9c3.9-0.5,6-4.2,5.2-7.7C710.3,379.1,709.5,375.8,708.6,372z M392.2,425c-3.2,1.8-5.7,3.3-8.1,4.7
		c0.3,0.5,0.5,1.1,0.8,1.6c2.8-1.2,5.6-2.3,8.6-3.6c1.5,2.7,3.1,5,4,7.6c0.8,2.2,1.8,5.1,1,6.9c-1,2.3-3.8,3.8-6,5.8
		c2.1,2.9,3.8,5.5,6,8.5c2.1-2.9,3.7-5.2,5.8-8.1c1.7,3.3,3.2,6.2,4.7,9.1c3.2,6.3,3.2,6.3-2.7,10.2c-0.2,0.1-0.3,0.5-0.3,0.7
		c2.4,1.4,4.8,2.8,7.2,4.2c8-4.5,8.7-6.7,4.8-14.4c-1.6-3.1-2.9-6.4-4.8-9.3c-3.6-5.3-4.4-10.4,0-15.7c0.4-0.5,0.3-1.3,0.6-2.7
		c-2.7,2-4.8,3.5-7.3,5.3c-2.1-4.2-4-8-6-11.9c3.1-1.8,5.7-3.3,9.2-5.3c-3.4-1.3-5.7-2.1-8-3c-0.9,2-1.6,3.6-2.8,6.2
		c-2-5.1-3.7-9.1-5.6-14c-2.5,0.8-5.5,1.7-8.7,2.6C387.2,415.7,389.6,420.2,392.2,425z M752,334.6c6.6,0,12.2,0,18.8,0
		c-2.4-3.4-4.3-6-6.1-8.5c-7.2,3.1-13.2,9.2-21.4,2.3c-0.8,11-1.4,20.9-2.1,30.8c-0.7,10.1-4.1,19.2-9.8,27.6
		c9.4-5.1,14.3-13.4,17.5-23.9c2.5,0.7,6,0.7,6.9,2.2c2.3,3.7,5.1,2.5,8.1,2.4c1-6.4,1.9-12.6,3-19.4c-1.7-1.2-4.1-2.9-5.5-4
		c-3.8,0.9-6.6,1.7-10.4,2.6C751.4,341.9,751.7,338.4,752,334.6z M163.8,574.6c-1.1-9.7-1.6-18.4-4.6-26.7c-0.9,1.1-1.1,2.2-1.1,3.2
		c0,3.7-1.8,5.4-5.5,5.7c-11.6,0.9-23.1,2.1-34.7,3c-10.6,0.8-10.6,0.6-16-6.8c-1.6,4.2,1.3,23.6,3.8,25.8c1.4-8.1,1.4-8.1,9.8-8.9
		c11.6-1.1,23.2-2,34.7-3.1c7.9-0.8,7.9-0.9,11.2,6.5C161.6,573.6,162.2,573.8,163.8,574.6z M240.4,469.1c-0.1,0.5-0.1,1-0.2,1.5
		c1,0.2,2,0.6,3,0.7c3.3,0.3,6.6,0.3,9.9,0.8c1.1,0.2,2.7,1.6,2.8,2.5c0.3,4.7,0.1,9.5,0.1,14.5c-3.2,0.1-5.5,0.2-8.2,0.4
		c1.6,2,3.1,3.5,4.2,5.3c1.7,3,4,4.4,7.3,3.1c3.3-1.2,4.8-3.5,4.8-7.2c0-6.1,0.6-12.1,0.9-18.1c7.1,0,13.4,0,21.2,0
		c-3.5-3.2-5.8-5.3-8.3-7.6c-3.8,4.3-7.6,6.4-12.7,4.4c-1-10.7,7.6-10.6,15.6-13c-4.4-2.9-7.8-5.3-10.5-7.1
		c-8.7,5.3-17.6-0.4-25.6,2.4c0,0.5-0.1,1-0.1,1.4c7.1,0.5,14.3,1,21.4,1.5c-0.3,6.3-4.8,5.6-9,5.6c-0.1,1.3-0.4,2.3-0.3,3.2
		c0.7,4.9-1.4,6.4-6.1,5.8C247.2,468.7,243.8,469.1,240.4,469.1z M699.5,331.1c-3.2,4.1-10,5.3-19,4.5c-0.2-2.9,0.6-6.2-0.7-8.2
		c-2.5-3.9-7-3.7-11.3-3.1c1.2,3.9,2.4,7.6,3.7,11.9c-7.3-0.9-14.9,4.2-21.1-2.2c-2,2.2-3.9,4.5-5.9,6.6s-3.4,4.5-1,7
		c2.6,2.7,5.7,1.9,7.8-0.7c1.6-1.9,2.3-4.6,3.5-7.3c13.2-0.7,26.8-1.4,40.7-2.2c-0.4,2.6-0.7,4.4-1.1,6.7c5-2,9.5-3.8,15.4-6.1
		C706.4,335.5,703.1,333.4,699.5,331.1z M680,343.7c4.2,4.6,8.2,9.2,12.4,13.7c2.4,2.6,5.1,2.1,7.5,0.1c2.4-1.9,3.1-4.5,0.7-6.8
		C694.7,345.1,687.6,343,680,343.7z M649.8,361.7c0.1,0.2,0.3,0.4,0.4,0.7c7.9-4.8,15.8-9.6,24.4-14.9c-3.7-2-7-3.8-9.8-5.4
		C659.5,349,654.6,355.4,649.8,361.7z M170.7,600.4c2.6-3.7,5.1-7.2,8.3-11.7c-8.1-0.5-14.8-0.8-22.1-1.2
		C161.8,592.1,165.9,595.9,170.7,600.4z M496.6,364.4c1.5,0.8,3,1.5,4.2,2.4c1.3,1,2.4,2.3,3.7,3.2c1.7,1.2,3.6,2.6,5.6,2.8
		c1.1,0.1,3.4-2.5,3.2-3.5c-0.3-2.2-1.4-4.8-3.1-6.2C506.6,360,501.1,360.8,496.6,364.4z M317.7,432.3c1.1,3,1.7,6.3,3.4,9
		c0.9,1.5,3.6,2.8,5.3,2.6c2.7-0.4,4-2.6,2.8-5.6C327.5,433.9,323.1,431.6,317.7,432.3z"/>
	<path class="st0" d="M853.8,720.2c-7.4,9.6-13.9,18.8-21.1,27.4c-56.4,67.4-125,117.4-209,145.1c-46.9,15.5-95.2,22-144.5,19.3
		c-47-2.6-91.7-14.7-134.6-33.7c-47.7-21.1-91.2-48.6-129.3-84.4c-5.7-5.3-10.7-11.4-15.8-17.3c-1.8-2.1-3-4.6-4.9-7.6
		c12.5,1.1,24.2,2.7,35.8,2.9c31.1,0.7,62.2,1.5,93.2,1c29.3-0.5,58.3-4.5,87-10.2C437,757.7,462,749,487,740
		c47.9-17.4,97.1-30,147.6-36.7c71.7-9.5,142.6-6.5,212.2,14.6C848.9,718.4,850.9,719.2,853.8,720.2z M665.8,795.1
		c0.5,1.2,1.1,2.4,1.7,3.6c5.8,9.9,20.2,9.8,26.1,0c6.7-11.1,6.8-23,0.6-34.2c-6-10.8-21.9-10.6-27.5,0.4c-0.4,0.8-0.8,1.6-1.1,2.5
		C662.2,776.3,662.2,786.2,665.8,795.1z M716.5,805.1c1.1,0.2,2.2,0.6,3.3,0.6c16,0.1,30.3-16.3,28.2-32.1
		c-1.6-11.7-9-18.1-19.7-17.2c-8.4,0.7-14.8,8.9-14.2,18.1c0.5,8.4,6.4,13.6,15.4,13.2c3-0.1,6-1.1,9.3-1.7
		C734.8,796.7,726.7,801.8,716.5,805.1z M613.8,805.2c0.6,0.2,1.1,0.5,1.7,0.5c16.9,1.1,32.5-16.5,29.4-33.1
		c-2.1-11.3-9.1-17.1-19.6-16.1c-8.4,0.7-14.8,8.9-14.1,18.1c0.6,8.4,6.5,13.6,15.4,13.2c3-0.1,5.9-1.1,9.3-1.7
		C631.9,796.7,623.8,801.7,613.8,805.2z M595.3,804.5c-5.5-1-6.8-4.1-6.6-9c0.3-6.6,0.1-13.3,0.1-19.9c0-6.2,0-12.5,0-19.7
		c-5.6,2.6-10.2,4.8-14.8,7c7.4,0.5,7.4,0.5,7.4,8.4c0,7.6-0.2,15.3,0.1,22.9c0.2,5-0.2,9.2-6.3,10.3H595.3z"/>
	<path class="st0" d="M807.3,609c2.6-2.1,4.3-3.4,5.9-4.7c10.9-8.6,22.8-15.6,36-19.9c7-2.3,14-3,20.3,2.2c7.9,6.5,6.6,16-2.9,19.6
		c-6.6,2.5-13.6,4-20.4,6c1.9,12.7,1.1,13.4-16.9,17.2c1.5,5.2,3.7,6.7,8.5,5.6c2.4-0.6,4.7-1.5,7.1-2.3c4.7-1.6,8.7-0.3,11.5,3.5
		c1.4,1.9,2.6,5.6,1.7,6.8c-1.5,2-4.9,3.6-7.4,3.4c-6.5-0.4-6.5-0.8-6.2,5.9c0.7,13.1-9.2,20-22.5,15.8c-4.3-1.4-8.5-2.8-12.6-4.6
		c-1.2-0.6-1.7-2.7-2.5-4.1c1.4-0.4,2.8-1.4,4.1-1.2c3.9,0.7,7.7,2.2,11.6,2.8c5.5,0.8,10.1-1.7,12.1-6.6c0.7-1.7,0.4-4.3-0.6-5.7
		c-0.6-0.8-3.5-0.5-5.2,0c-4.1,1.3-8,3.2-12.1,4.3c-1.9,0.5-4.4,0.1-6.3-0.6c-4.2-1.5-4.9-6.5-1.2-9c1.7-1.2,3.9-1.7,6-2.4
		c6.8-2.1,8.9-5.6,7.5-13.1c-1.2-0.1-2.5,0-3.7-0.3c-1.5-0.4-4-1-4-1.7c-0.1-1.7,0.4-4.3,1.6-5.1c4.1-2.7,8.6-4.9,13.1-6.9
		c9.2-4.2,18.5-8.1,27.7-12.3c1.4-0.7,2.3-2.5,3.4-3.8c-1.7-0.8-3.5-2.5-5-2.2c-6.5,1.2-13.4,1.8-19.1,4.8
		c-9.1,4.7-17.4,10.8-25.8,16.7c-3.4,2.4-6.4,4.6-10.8,2.6c-6.9-3.1-8.3-6.7-4.8-13.4c3.3-6.4,7.1-12.4,14.9-15.4
		c-3.1-3.7-6.1-6.6-8.3-10c-1.5-2.4-2.7-5.6-2.3-8.2c0.3-2.1,2.7-4.6,4.8-5.5c1.4-0.6,4,1.1,5.9,2.1c1.4,0.7,2.4,2,4.5,3.9
		c1.2-9.9,6.6-11.5,14.6-9.5c1.7,0.4,4.4-1.9,6.3-3.4c3.4-2.7,6.4-5.8,9.8-8.4c3.5-2.8,7.4-3.4,11.7-1.8c8,3,10.3,10.5,4.2,16.5
		c-4.8,4.7-10.5,8.6-16.2,12.3c-9.9,6.4-20.2,12.2-30.1,18.5C811.4,599.7,808.3,602.9,807.3,609z M848.2,566.2
		c-0.5-0.6-1-1.2-1.5-1.9c-7,5.2-14,10.4-21,15.6c0.3,0.4,0.6,0.8,0.8,1.1C835.3,578.4,842.9,574,848.2,566.2z"/>
	<path class="st0" d="M604.4,652.8c-3.7,0-6.5,0-9.3,0c0.8-3.1,1.5-6.1,2.6-10.4c-2.5,1-5.2,1.6-7.4,3c-4.1,2.8-7.7,6.4-11.8,9.2
		c-3.1,2.1-6.7,3.6-10.2,5c-4.1,1.5-7.9,0.9-10.4-3.3c-2.3-3.9-1.6-9.3,2.4-12.1c3-2.1,6.8-3.1,10.4-4.2c2.9-0.8,5.3-1.8,4.3-5.3
		c-0.9-3,0.1-4.9,3-5.8c3.1-1,6-0.7,7.8,2.5c0.6,1.1,0.6,2.9,1.5,3.6c1.8,1.3,3.9,2.2,6.1,2.9c0.9,0.3,2.1-0.7,3.3-1
		c7.7-1.8,10.3,0.7,9,8.4c-0.2,1.1-0.1,2.2-0.2,3.3c7.6,0.3,16.2-4.3,18.2-10.1c0.8-2.2,1-5.2,0.1-7c-0.5-1-4.2-0.9-6.3-0.6
		c-5.4,0.8-10.7,2.4-16.1,3.1c-4.9,0.7-8.8-1.8-9.8-6.5c-1.1-5.2-4-8.6-8.5-11.1c-3.9-2.1-5.5-5.3-5.9-9.7
		c-1.1-10.8-1.4-21.6,2-32.1c3.6-11.3,11.3-18.7,22.3-22.5c2.3-0.8,5.3-0.1,7.8,0.6c0.8,0.2,1.7,3.6,1.2,4.1c-2.3,2-5,4.8-7.5,4.8
		c-5.5-0.2-9.4,2-12.4,5.9c-1.1,1.5-1,3.9-1.4,6c1.9-0.2,3.9,0,5.5-0.7c4.8-2.2,9.3-5.2,14.3-6.9c2.1-0.7,6.3,0,7.3,1.5
		c1.4,2.2,1.7,6,0.8,8.6c-2.3,6.7-5.7,12.9-8.3,19.5c-1.7,4.2-3.7,7.7-8.3,9.3c-1.4,0.5-2.5,1.7-3.7,2.5c0.1,0.5,0.3,1,0.4,1.6
		c1.7,0,3.4-0.3,5,0.1c1.6,0.4,4,1.2,4.4,2.4c0.5,1.5-0.1,3.9-1.1,5.3c-1.5,2.1-3.9,3.5-5.8,5.5c-0.8,0.8-1,2.1-1.5,3.2
		c1.2,0.4,2.4,1.5,3.4,1.2c2.1-0.5,4-1.5,6-2.4c6.6-3,13.3-5.2,20.7-3.7s11,6.8,9.4,14.2c-2.1,9.5-7.4,17-15,22.9
		c-7.9,6-12.3,5-17.3-3.4C605,653.7,604.5,653,604.4,652.8z M594.2,585.2c0.4,0.4,0.7,0.9,1.1,1.3c2.5-1.4,5.1-2.7,7.4-4.4
		c0.7-0.5,0.4-2.3,0.6-3.5c-1.2,0-2.8-0.5-3.4,0.1C597.7,580.7,596,583.1,594.2,585.2z M589.5,606.6c4.1-3.4,3.3-6.6,1.5-9.7
		c-0.5,0-1,0-1.5,0C589.5,600.1,589.5,603.3,589.5,606.6z"/>
	<path class="st0" d="M469,630.5c-3.2,0.5-6.6,1.4-10,1.2c-1.7-0.1-4.4-1.8-4.8-3.3c-0.5-1.8,0.6-4.3,1.7-6.1c0.8-1.3,2.5-2.1,3.9-3
		c12.6-7.2,16.9-18.6,16.3-32.4c-0.1-1.7-0.4-3.3-0.4-5c0-4.3,2.8-6.7,6.8-5.6c7.5,2.2,13.2,6.9,16.8,13.9c2.1,3.9,0.8,7.5-1.5,10.7
		c-2.7,3.8-5.8,7.3-8.6,11c-2,2.6-2.1,4.5,1.8,5.2c4,0.7,7.2,2.6,8.2,6.9c1,4.5-1.7,7.2-4.7,9.7c-2.2,1.9-4.3,3.8-6.5,5.7
		c0.2,0.5,0.3,0.9,0.5,1.4c1.5,0,3,0,4.6,0c8-0.1,11.6,2.1,13.9,8.7c2.5,7,0.9,12.8-5,17.3c-4.1,3.1-8.4,6-12.3,8.8
		c1.5,2.9,3.7,5.4,4,8.1c0.3,2.4-0.8,6.2-2.6,7.2c-2,1.1-6.2,0.9-8-0.6c-4.4-3.7-8.1-8.2-11.8-12.7c-2.2-2.7,1.4-9,5.7-9.9
		c4.2-0.9,8.6-1,12.7-2.3c2.6-0.8,5.5-2.6,6.8-4.8c2.2-3.9-0.2-7.2-4.7-7.5c-5.8-0.4-10.7,1.8-15,5.6c-6.6,5.9-13.2,11.7-19.8,17.6
		c-1.4,1.2-2.7,2.5-4.2,3.6c-2.9,2.1-5.8,2.4-8.5-0.4c-2.7-2.7-2.1-5.7,0.1-8.1c6-6.6,12-13.4,18.7-19.3c4.2-3.6,6.1-6.4,4-12.1
		C466.4,637.5,468.4,633.7,469,630.5z M481.7,630c2.2,1.9,4,3.8,4.2,3.7c2.2-1.9,4.2-4,6.2-6.1c-1.3-1-3.1-3-3.8-2.7
		C486.1,625.9,484.4,627.8,481.7,630z"/>
	<path class="st0" d="M222.1,213.7c6.2-5.1,12.3-10.1,18.5-15.2c-3.9,7.2-3.9,7.6,1.7,14.4c6.5,7.8,12.7,15.9,19.6,23.3
		c10.4,11,24.6,7.2,28.2-7.6c0.8-3.3,0.2-8.1-1.8-10.7c-7.5-10.3-15.8-20.1-23.9-30c-3-3.7-6.4-2-9.8,0.2
		c8.1-8.1,16.6-15.4,26.8-20.2c1.2-0.6,3.2,0.2,4.7,0.7c14.7,5.6,29.4,11.4,44.2,17c1.6,0.6,3.3,1.2,6.4,2.2
		c-2.7-4.5-4.6-7.8-6.6-11.2c-3.8-6.3-7.5-12.6-11.3-18.8c-3.8-6.1-4.7-6.4-11.2-4.4c4.4-6.1,26.1-14,38.3-18.8
		c-1.4,1.7-3.9,3.5-4.2,5.7c-0.4,2.3,1,5.1,2.1,7.5c5.3,11.4,10.8,22.8,16.3,34.2c3.4,7.1,4.1,7.4,11.7,6.8
		c-7,3.2-14.1,6.4-21.1,9.6c7.4-4.4,3.8-9.5,1.3-14.6c-5.6-11.5-11-23.1-16.6-34.6c-2.9-6-8.7-7.1-13.9-3.1c-2.8,2.2-2.6,4.8-1,7.5
		c3.4,5.9,6.9,11.7,10.4,17.6c5,8.3,10,16.5,15,24.8c0.7,1.2,1.4,2.5,2.8,5.3c-20.5-7.8-39.5-15.1-58.5-22.4
		c-0.2,0.3-0.5,0.6-0.7,0.9c3,5.1,6,10.1,9.1,15.2c2.9,4.8,5.8,9.7,8.8,14.5c4.5,7.4,4.5,7.4,12.6,6.2c-5.4,3.2-10.9,6.4-16.3,9.5
		c5-6.5,5-6.6,0.5-14c-6.4-10.7-12.9-21.4-19.3-32c-3.6-6-12.7-6.3-16.9-0.7c-2.4,3.2-1.2,6,0.9,8.6c5.2,6.5,10.6,12.8,15.8,19.3
		c2.7,3.4,5.2,6.9,7.5,10.6c2.9,4.7,3.1,9.7,1.4,14.9c-5.6,17.2-26.5,22.2-38.5,8.9c-6.5-7.1-12.4-14.8-18.6-22.2
		C230.4,211.3,230.4,211.3,222.1,213.7z"/>
	<path class="st0" d="M526.6,161.2c0.5-6.1,0.9-11.1,1.4-16.1c0.3,0,0.5-0.1,0.8-0.1c0.4,1.3,1,2.6,1.3,3.9
		c1.6,8.5,7.3,12.7,15.2,14.4c5.2,1.1,10.3-1.2,12.3-5.4c2.4-4.9,0.2-9-3.4-12c-5.4-4.6-11.6-8.4-17-13.1c-3-2.6-6.1-6-7.3-9.7
		c-3.5-10.3,5.2-20.3,16.3-18.9c3.5,0.4,6.9,2.2,10.4,3.1c2.5,0.6,5.1,0.7,8.5,1.1c-0.3,4.8-0.8,11.1-1.2,17.3c-0.3,0-0.6,0-1,0
		c-0.4-1.9-0.9-3.8-1.4-5.6c-1.8-6.8-7.8-12-14.5-12.6c-4.6-0.4-8.3,1.2-10.3,5.4c-1.9,4-0.3,7.6,2.9,10.2c4.4,3.6,9,6.8,13.5,10.2
		c3,2.3,6.3,4.5,8.8,7.3c4.4,4.8,5.7,10.6,3,16.6c-2.7,5.9-7.6,9.6-14.2,9.1c-5.3-0.4-10.6-2.2-15.8-3.5c-2.3-0.6-4.5-2.7-6.7,0.2
		c-0.2,0.2-1.1,0-1.7-0.1c-1.3-0.2-2.6-0.9-3.7-0.7c-9.6,2.1-15.5-2.6-20.3-10.2c-3-4.7-7.1-8.8-10.4-13.4c-2.4-3.3-5-4.6-9.6-2.7
		c0.6,7,0.8,14.3,2.2,21.3c0.4,2.2,4.2,3.7,6.1,5.3c-6.4,0-14,0-21.9,0c6.9-0.8,7.2-5.5,6.8-10.8c-1-12.4-1.7-24.9-2.7-37.3
		c-0.7-8.2-0.9-8.2-10-10.2c2.2-0.4,3.2-0.7,4.1-0.7c9.3-0.1,18.6-0.4,27.9,0c10.4,0.4,16.9,8.3,15.5,17.8c-0.7,4.5-3.2,7.6-7,9.7
		c-1.7,0.9-3.6,1.7-6.3,2.9C507.1,143.3,511.1,157.6,526.6,161.2z M482.5,132.3c9,0.7,15.4-2.1,17.8-7.5c2.2-4.8,0.8-11.5-3.3-15.1
		c-4.3-3.8-10.5-4.3-16.3-1.3C481.3,116.3,481.9,124.2,482.5,132.3z"/>
	<path class="st0" d="M720.6,594.3c4.5-0.5,6.7-3,7.7-6.6c0.8-2.9,1.3-5.9,2.3-8.6c0.5-1.2,2-2.6,3.1-2.7c0.9,0,2.5,1.6,2.8,2.8
		c1.4,4.8,2.5,9.6,3.4,14.5c0.8,4.5-1.4,7.8-5,10.1c-2.2,1.4-4.8,2.2-7.3,2.9c-8.3,2.2-13.1,7.4-15.8,15.6c-3,8.9-7,17.5-10.9,26.1
		c-1,2.3-3.2,4.4-5.3,5.7c-1.5,0.9-4.9,1.2-5.6,0.2c-1.2-1.4-1.7-4.5-0.9-6.1c2-4.2,5-7.8,7.4-11.8c2-3.4,3.9-7,5.4-10.6
		c0.6-1.4,0.1-3.2,0.1-4.8c-1.5,0.1-3.1,0.1-4.6,0.3c-1.1,0.1-2.3,0.9-3.4,0.7c-2.3-0.5-5.6-0.8-6.6-2.4c-2.1-3.1-1-6.6,2.3-8.6
		c3.5-2.2,7.2-4.2,11-5.7c7.3-2.9,11-8,11.7-15.8c0.9-9.6,1.7-19.2,3-28.8c1.1-8.3,7-12.1,12.4-8.1c1,0.7,1.7,4,1.1,4.7
		c-4.6,4.4-5.4,10.1-6.2,15.9c-0.8,6.3-1.8,12.5-2.6,18.7C720,592.6,720.4,593.2,720.6,594.3z"/>
	<path class="st0" d="M597.9,174.8c4.2-0.2,7.4-0.4,8.5-4.6c4-15.5,7.9-31.1,11.9-46.5c-12-5.7-14.7-5.3-22,2.8
		c1.1-3.9,2.2-7.7,3.6-12.6c23.8,7.8,48.5,12.2,71.3,24.5c-8.4-0.4-9.4,0.7-8,8.3c1.3,7.2,2.9,14.3,4.5,22.3
		c2.4-1.5,4.5-2.6,6.4-3.9c3.9-2.6,7.7-5.2,11.5-7.9c5.8-4.1,6-6,1.7-11.9c5.9,2.6,11.7,5.3,17.6,7.9c-7-0.5-11.9,3.1-16.9,6.7
		c-3,2.1-5.9,4.5-9.1,6.2c-8.1,4.2-13,10.6-15.8,19.3c-2.8,8.8-3.3,8.6,3,14.6c-7.4-3.3-14.8-6.6-22.2-9.9c8,0.6,7.9,0.1,11.6-7.1
		c4.2-8.4,4.6-16.5,2-25.4c-1.9-6.5-2.5-13.4-4.3-19.9c-0.9-3.2-3.2-6-4.9-9c-0.5,0.2-1.1,0.4-1.6,0.6c-0.9,3.7-1.8,7.5-2.7,11.2
		c0-11.9-9.1-12.6-17.7-14.9c-2,7.9-4,15.8-6,23.6c-1.5,6.1-3,12.3-4.5,18.4c-2.2,8.7-2.2,8.7,4.5,13.8
		C612.9,179.2,605.4,177,597.9,174.8z"/>
	<path class="st0" d="M210.2,308.4c-17.8,0.1-33.7-15.6-33.8-33.1c-0.1-15.6,11.7-27.4,27.4-27.4c17.6,0,33.1,15.9,33.1,33.7
		C237,296.8,225.5,308.3,210.2,308.4z M197.8,253.9c-13.5-0.4-21.3,13.3-14.3,25.8c6.2,10.9,15.8,18.2,27.9,21.8
		c6.2,1.9,11.8,0.8,16.4-4c4.8-5,5.9-11,4-17.5C228.5,268.8,209.5,254.3,197.8,253.9z"/>
	<path class="st0" d="M457.3,117.4c-6.5-8.2-7.2-8.5-17.6-6.5c-4,0.8-8.1,1.4-12.8,2.3c1.6,7.9,3.1,15.5,4.8,23.5
		c4-0.7,7.6-1.3,11.1-1.8c7.9-1.3,8.4-1.7,10.7-9.4c1.3,6.2,2.7,12.4,4,18.6c-6.6-12.7-16.3-4-25.3-4.6c1.7,8.2,3,15.5,5,22.6
		c0.4,1.5,3.2,2.6,5.1,3.3c1.3,0.4,2.9-0.4,4.4-0.6c9.7-1.1,18.7-3.2,20.2-15.7c0.5,0.3,1,0.6,1.6,0.9c-0.7,4.5-1.2,9-2,13.4
		c-0.1,0.5-1.2,1.1-1.9,1.3c-13.9,2.4-27.7,4.7-42.9,7.3c7.8-4.8,7.9-4.8,6.3-13c-2.4-12.2-4.9-24.4-7.4-36.6
		c-1.6-7.7-2.1-8.1-9.4-9.5c9.6-1.6,19.2-3.2,28.9-4.9c2-0.3,3.9-0.7,5.9-1c8.7-1.3,8.7-1.3,10.8,7.4
		C456.8,115.3,457,116.3,457.3,117.4z"/>
	<path class="st0" d="M782.1,205c-3.8,5.1-7.6,10.2-11.3,15.3c-0.3-0.2-0.6-0.3-0.9-0.5c0.7-2,1.5-3.9,2-5.9
		c2.3-8-1.9-16.9-9.3-19.7c-6.9-2.7-12.9,1.8-11.6,9c0.8,4.2,2.7,8.2,4.2,12.2c1.6,4.2,3.8,8.2,5.3,12.4c2.6,7.2,1.1,13.7-3.7,17.8
		c-4.9,4.2-13,5.1-19.1,0.9c-4.4-3-7.7-7.7-11.6-11.3c-1.8-1.7-4.2-2.8-6.9-4.6c2.9-4,6.7-9,10.4-14.1c0.4,0.2,0.8,0.3,1.2,0.5
		c-0.5,1.4-1.1,2.7-1.6,4.1c-3.3,9.2,1.5,19.3,10.6,22.8c7.1,2.7,13.6-2,12.6-9.5c-0.5-3.8-2.4-7.5-3.8-11.2
		c-1.9-5-4.3-9.8-5.7-14.9c-1.6-5.7-1-11.3,3.9-15.5c5-4.1,10.9-4.8,16.3-1.8c4.2,2.4,7.6,6.2,10.8,9.8
		C776.1,203,777.3,206.5,782.1,205z"/>
	<path class="st0" d="M790.6,294.5c3.9-3.1,8.7-6.8,13.5-10.6c0.3,0.2,0.6,0.5,0.9,0.7c-0.8,1.3-1.5,2.6-2.5,3.8
		c-6.9,9-1.5,20.6,5.1,24.3c2.7,1.5,7.2,2,9.6,0.7c2.4-1.3,4.7-5.4,4.7-8.3c0-6.6-1.3-13.2-2.3-19.7c-1.6-10.8,1.7-18.1,9.5-20.5
		c7.9-2.4,16.6,2.4,20.9,11.4c0.6,1.3,1.3,2.7,1.6,4.2c0.8,3.5,2.1,6.4,6.8,6.2c-5,3.9-9.9,7.8-14.9,11.7c-0.3-0.3-0.5-0.5-0.8-0.8
		c1.1-1.7,2.4-3.4,3.4-5.1c4.1-6.7,2.6-16.1-3.4-20.7c-3-2.3-6.4-3.5-10.2-1.7c-3.7,1.8-4.7,5.1-4.4,8.8c0.4,4.8,1.3,9.5,2,14.3
		c0.4,2.8,1,5.6,1.4,8.4c1.1,7.5-1.6,13.6-7.1,16.8c-5.6,3.2-14,2.6-18.9-2.7c-3.8-4.1-6.2-9.7-9.3-14.4
		C794.7,299,792.8,297.2,790.6,294.5z"/>
	<path class="st0" d="M196.8,350c-2.8,4.9-5.5,9.8-8.3,14.7c0.8-6.2-2.9-10.2-5.9-14.3c-9.6-12.9-19.3-25.8-28.9-38.7
		c-1.1-1.4-2.1-2.9-4-5.7c5.4,0.7,9.7,1.1,13.9,1.7c13.8,2.1,27.5,4.4,41.3,6.4c4.6,0.7,9.2,0.9,13.5-2.6c-3.5,6.3-7,12.6-11.2,20.2
		c0.1-4.9,1-9-4.3-9.7c-3.8-0.5-7.5-1.3-11.3-1.7c-0.7-0.1-1.7,0.9-2.2,1.6c-3.1,5.3-6.2,10.6-9,16.1c-0.5,1-0.2,2.9,0.5,3.9
		c1.3,2.3,3,4.3,4.7,6.4C189.8,354,190.7,354.1,196.8,350z M187.1,319.4c-8.9-1.3-16.8-2.5-26.2-3.9c5.9,7.9,10.9,14.6,16.3,21.8
		C180.7,330.9,183.6,325.6,187.1,319.4z"/>
	<path class="st0" d="M350.8,131.1c6.1-1.9,13.1-4.2,20.2-6.4c-1.4,2.5-3.9,4.9-3.6,6.8c0.3,2.5,2.7,4.8,4.5,6.9
		c8.1,9.2,16.4,18.3,25.4,28.4c0.4-7.4,0.8-13.5,1.1-19.7c0.3-6.6,0.5-13.3,0.6-19.9c0.1-6.4-0.8-7.3-7.7-9c5.2-1.7,10.5-3.4,15.7-5
		c-4.6,5-4.4,11-4.6,16.9c-0.6,16.6-1.4,33.2-2.2,51c-2.1-1.9-3.5-3.1-4.7-4.4c-11.8-13.1-23.5-26.3-35.4-39.2
		C357.7,134.7,354,133.2,350.8,131.1z"/>
	<path class="st0" d="M804.7,232c-8.4-10.5-10.6-11.3-21-8c3-2.8,6.1-5.7,9-8.4c11.6,11.8,23,23.4,34.8,35.3c-2.2,2.5-5,5.7-7.7,8.8
		c5.8-10.7-2.4-15.5-8.7-21.7c-4.7,4.8-9.1,9.4-13.6,14c-5.8,5.9-11.6,11.9-17.4,17.8c-5,5.2-5,6-0.2,11.1
		c-5.6-5.7-11.2-11.3-16.9-17c-0.4,0.4-0.7,0.8-1.1,1.1c2.3,0.8,4.9,2.6,7,2.2c2.3-0.5,4.4-2.7,6.3-4.6c9.3-9.4,18.6-19,27.8-28.5
		C803.6,233.6,804.1,232.7,804.7,232z"/>
	<path class="st0" d="M724,164.9c6.9,4.4,13.7,8.7,21.2,13.5c-3.5-0.3-6.5-1.5-8.6-0.5c-2.1,0.9-3.5,3.8-4.9,6
		c-6,9.9-11.9,20-17.9,30c-4.3,7.2-4.2,7.6,0.9,14.2c-6.8-4.3-13.6-8.6-20.4-13c7.9,1.4,8.1,1.4,12.3-5.7
		c6.2-10.4,12.4-20.8,18.6-31.2C729,171.9,728.8,170.8,724,164.9z"/>
	<path class="st0" d="M597.6,114c-7.2,1.1-8.2,2.1-9.3,9.4c-1.8,11.6-3.4,23.3-5.3,34.9c-1,5.9-2.2,11.5,5.4,14.1
		c-7.5-1.5-15.1-3-22.6-4.6c8.3,0.4,8.3-5.7,9.2-11.2c1.8-11.6,3.7-23.2,5.5-34.9c0.8-5.1,0.8-9.8-5.4-12.2
		C582.6,111,590.1,112.5,597.6,114z"/>
	<path class="st0" d="M718.1,631.9c0.1-5.6,3.1-8.1,7-6.7c10.5,4,18.4,11.3,24.1,20.8c0.9,1.5,0.4,4.8-0.7,6.4
		c-0.9,1.2-3.9,1.5-5.7,1.1c-2.1-0.5-4.1-2-5.8-3.5c-5.1-4.4-10-9.1-14.9-13.7C720.4,634.7,719,632.9,718.1,631.9z"/>
	<path class="st0" d="M359.3,471.5c0.5,3.5,1,6.5,1.4,9.5c-10.1,3.4-10.1,3.4-11.4-7.7c1.5-0.4,3.1-0.8,4.6-1.1
		C355.6,471.9,357.2,471.8,359.3,471.5z"/>
	<path class="st0" d="M358.3,468.5c-9,3-10.4,2.3-10.2-4.6C356.8,460.4,358.5,461.1,358.3,468.5z"/>
	<path class="st0" d="M349.1,445.7c-0.4-2.2-0.8-4.5-1.3-7.2c1.6-0.1,3-0.3,5.1-0.4c-1.2,3.1-2.1,5.5-3.1,7.9
		C349.6,445.9,349.3,445.8,349.1,445.7z"/>
	<path class="st0" d="M599.7,368.4c-9,2.7-9,2.7-10.8-5.5c-0.9-4.4-1.3-8.9-2.7-13.1c-1.5-4.7,0.4-6.1,4.5-6.4
		c1.1-0.1,2.3-0.3,3.9-0.5C596.4,351.3,598,359.7,599.7,368.4z"/>
	<path class="st0" d="M419.7,426.4c5-2.5,9.9-5,15.9-8.1c0.4,7.3,0.7,13.5,1,19.6c-0.5,0.4-1,0.8-1.5,1.2
		c-5.3-3.6-10.6-7.3-15.9-10.9C419.4,427.6,419.6,427,419.7,426.4z"/>
	<path class="st0" d="M749.4,360.8c0.4-4.4,0.8-8.2,1.2-12.2c2.3,0,4.4,0,7.3,0c-0.4,4.2-0.8,8.1-1.2,12.2
		C754.2,360.8,752,360.8,749.4,360.8z"/>
	<path class="st0" d="M569.6,386.5c-5,0.3-5,0.3-7.6-16.7c1.2-0.4,2.5-0.9,4-1.5C567.2,374.5,568.4,380.3,569.6,386.5z"/>
	<path class="st0" d="M689.1,770.3c1.3,7.2,1.4,14.6,0.1,21.8c-0.3,1.8-0.8,3.6-1.4,5.4c-1,2.7-4.3,5.9-7.1,6.5
		c-4,0.9-6.6-2.7-7.6-6.5c-3-10.9-3.3-22,0.3-32.8c0.9-2.8,4.3-5.9,7-6.5c4-0.9,6.6,2.9,7.5,6.5
		C688.4,766.6,688.8,768.4,689.1,770.3z"/>
	<path class="st0" d="M722.3,773.2c-0.4-2.6-0.4-5.3,0.2-7.9c1.1-4.6,3.4-7.2,7.1-7.4c5-0.4,8.5,3.9,9.6,11.8
		c0.2,1.6,0.5,3.3,0.6,4.9c0.4,6.6-1.1,8.7-7.2,9.7c-4.2,0.7-8.1-1.9-9.6-6.8C722.7,776.1,722.5,774.6,722.3,773.2z"/>
	<path class="st0" d="M619.4,773.2c-0.4-2.6-0.4-5.3,0.2-7.9c1.1-4.6,3.4-7.2,7.2-7.4c5-0.4,8.5,3.9,9.6,11.8
		c0.2,1.6,0.5,3.3,0.6,4.9c0.4,6.4-0.9,8.3-6.7,9.6c-4.5,1-8.4-1.6-10-6.7C619.8,776,619.6,774.6,619.4,773.2z"/>
</g>
<path class="st0" d="M1263.5,488.9c8.7-15,19.7-26.5,33.1-34.4c13.4-8,28.2-12,44.4-12c26,0,45.9,8.3,59.7,24.9
	c13.8,16.6,20.7,40.7,20.7,72.3V669h-74.7V555.4c0-17.2-2.8-29.9-8.5-38c-5.7-8.1-14.5-12.2-26.4-12.2c-12.2,0-21.9,5.2-29.2,15.5
	c-7.3,10.4-10.9,24.4-10.9,42V669h-75.2V555.4c0-17.2-2.8-29.9-8.4-38c-5.6-8.1-14.4-12.2-26.5-12.2c-12.2,0-21.9,5.2-29.3,15.6
	c-7.3,10.4-11,24.4-11,41.9V669h-75V447.9h68v39.7c8.4-14.6,19.2-25.7,32.5-33.5c13.3-7.8,27.9-11.7,43.9-11.7
	c16.9,0,31.7,4,44.2,12C1247.5,462.4,1257,473.9,1263.5,488.9z"/>
<path class="st0" d="M1475.9,346.5h75.8V408h-75.8V346.5z M1475.9,447.9h75.8V669h-75.8V447.9z"/>
<path class="st0" d="M1770.9,453.6l-7.3,53.3c-10.1-5.7-20.3-10.1-30.5-13.1c-10.3-3-20.1-4.5-29.5-4.5c-9.2,0-16.4,1.6-21.4,4.9
	c-5,3.3-7.6,7.9-7.6,14c0,7.8,10.3,14.6,30.9,20.2c6.4,1.8,11.5,3.3,15.3,4.4c23.5,7,39.9,15.5,49.2,25.6c9.3,10.1,14,23.9,14,41.4
	c0,23.4-9.1,41.8-27.3,55.2c-18.2,13.4-43.3,20.2-75.2,20.2c-13.6,0-27-1-40.2-3.1c-13.2-2.1-26.2-5.2-38.9-9.4l4.8-56.7
	c10.6,5.5,21.7,9.6,33.2,12.5c11.5,2.9,23.1,4.3,34.9,4.3c11.1,0,19.4-1.5,25-4.5c5.6-3,8.4-7.5,8.4-13.5c0-9-11.3-16.8-34-23.5
	c-5.6-1.7-10-3-13.2-4c-23.1-7.6-39.2-16-48.3-25.3c-9.1-9.3-13.6-21.5-13.6-36.6c0-23.1,9.1-41,27.3-53.9
	c18.2-12.8,43.8-19.2,76.8-19.2c10.8,0,21.8,1,33.2,2.9C1748.1,446.9,1759.5,449.8,1770.9,453.6z"/>
<path class="st0" d="M1921.1,372.7v75.2h54.2v54.6h-54.2v76.2c0,16.4,2.7,27.9,8,34.6c5.3,6.7,14.4,10.1,27.3,10.1
	c1.8,0,4.1-0.2,6.9-0.7c2.8-0.5,6.8-1.4,12-2.6l1.3,49.3c-8.1,1.8-16,3.2-23.6,4.2c-7.6,1-15.1,1.5-22.4,1.5c-30,0-51.6-7.4-65-22.2
	c-13.4-14.8-20.1-38.8-20.1-72.1v-78.3h-42.6v-54.6h46.8v-51L1921.1,372.7z"/>
<path class="st0" d="M1993.3,447.9h81.7l48.9,154.5l46.4-154.5h76.2L2160,663.8c-8.4,21-15.3,36.4-20.6,46.3
	c-5.3,9.9-10.8,17.7-16.4,23.4c-9.7,9.9-20.6,17.3-32.8,22c-12.2,4.8-25.9,7.1-41.2,7.1c-5.6,0-11.8-0.3-18.5-0.9
	c-6.7-0.6-14.1-1.6-22.3-2.8l6.7-56.7c4.3,1.4,8.5,2.4,12.6,3.1c4.1,0.7,8,1,12,1c10.4,0,19.2-2.4,26.5-7.2
	c7.3-4.8,13.5-12.4,18.7-22.8L1993.3,447.9z"/>
<path class="st0" d="M2274,370.6h106.7c41.7,0,72.6,7.7,92.6,23.2c20,15.5,30,39.4,30,71.7c0,32.5-9.9,57.1-29.6,74
	c-19.7,16.9-48.4,25.3-86.1,25.3h-34V669H2274V370.6z M2353.6,424.4v86.7h21c16,0,28-3.5,36.1-10.5c8.1-7,12.2-17.4,12.2-31.1
	c0-14.8-4.1-26.1-12.2-33.7c-8.1-7.6-20-11.4-35.7-11.4H2353.6z"/>
<path class="st0" d="M2541.9,370.6h79.6V610h119.9v59h-199.5V370.6z"/>
<path class="st0" d="M2760.7,370.6h91.5l50.4,105.2l48.1-105.2h85.7l-89.4,141.9L3047.1,669h-93.6l-57.3-115.7L2837.8,669h-87.3
	L2851,512.6L2760.7,370.6z"/>
<path class="st0" d="M3207.9,370.6h121.4l54.6,179.3c2.1,7.1,3.8,15.2,5.1,24c1.3,8.9,2.3,18.4,3,28.7c1-11.1,2.2-21.2,3.8-30.5
	c1.5-9.3,3.3-17.2,5.2-23.8l54.6-177.6h119.5V669h-74.7V468.7c0-9.5,0.3-19.4,0.8-29.6c0.6-10.2,1.4-21.1,2.5-32.8
	c-2,9-4,17.5-6.1,25.7c-2.1,8.2-4.3,15.9-6.7,23.2L3423.8,669h-71.4l-65.7-210.2c-2.2-7.3-4.4-15.4-6.5-24.3
	c-2.1-8.9-4.1-18.3-5.9-28.2c1,14.1,1.8,26.8,2.4,38.1c0.6,11.3,0.9,19.8,0.9,25.5v199h-69.7V370.6z"/>
<path class="st0" d="M3838.6,553.3V669h-65.7l-1.7-34.4c-9,12.7-19.8,22.1-32.4,28c-12.7,6-28,8.9-45.9,8.9
	c-22.4,0-40.2-6.4-53.5-19.1c-13.3-12.7-19.9-29.7-19.9-51c0-24.5,9.7-42.7,29-54.5c19.3-11.8,49.1-17.7,89.2-17.7h29.6v-2.9
	c0-12-4.6-21.3-13.9-27.7c-9.2-6.4-22.7-9.7-40.3-9.7c-8.7,0-18.5,1.5-29.6,4.6c-11.1,3.1-23,7.6-35.7,13.4l-1.3-50
	c12.3-5.2,25.6-9,40-11.5s30.1-3.8,47.3-3.8c36.1,0,62.6,9,79.5,27C3830.2,486.6,3838.6,514.8,3838.6,553.3z M3754.4,568.4
	c-22.3,0-38.3,2.4-48.1,7.2c-9.8,4.8-14.7,12.6-14.7,23.2c0,7.7,2.6,13.9,7.9,18.7c5.2,4.8,12.2,7.1,20.9,7.1
	c13.7,0,24.9-4.6,33.7-13.9s13.1-21.3,13.1-36.1v-6.3H3754.4z"/>
<path class="st0" d="M4124.2,539.7V669H4049V555.4c0-17.4-3.1-30.3-9.2-38.7c-6.2-8.5-15.5-12.7-28.1-12.7c-13.2,0-23.7,5.3-31.6,16
	c-7.9,10.6-11.9,24.9-11.9,42.8V669h-75.8V447.9h68.9v39.7c8.7-14.8,19.9-26.1,33.6-33.9c13.7-7.8,29.2-11.7,46.4-11.7
	c27,0,47.6,8.3,61.7,24.9C4117.1,483.5,4124.2,507.8,4124.2,539.7z"/>
<path class="st0" d="M4384.3,553.3V669h-65.7l-1.7-34.4c-9,12.7-19.8,22.1-32.4,28c-12.7,6-28,8.9-45.9,8.9
	c-22.4,0-40.2-6.4-53.5-19.1c-13.3-12.7-19.9-29.7-19.9-51c0-24.5,9.7-42.7,29-54.5c19.3-11.8,49.1-17.7,89.2-17.7h29.6v-2.9
	c0-12-4.6-21.3-13.9-27.7c-9.2-6.4-22.7-9.7-40.3-9.7c-8.7,0-18.5,1.5-29.6,4.6c-11.1,3.1-23,7.6-35.7,13.4l-1.3-50
	c12.3-5.2,25.6-9,40-11.5c14.3-2.5,30.1-3.8,47.3-3.8c36.1,0,62.6,9,79.5,27C4375.9,486.6,4384.3,514.8,4384.3,553.3z M4300.1,568.4
	c-22.3,0-38.3,2.4-48.1,7.2c-9.8,4.8-14.7,12.6-14.7,23.2c0,7.7,2.6,13.9,7.9,18.7c5.2,4.8,12.2,7.1,20.9,7.1
	c13.7,0,24.9-4.6,33.7-13.9c8.7-9.2,13.1-21.3,13.1-36.1v-6.3H4300.1z"/>
<path class="st0" d="M4602.5,483.6v-35.7h69.9v191.5c0,40.9-10.9,71.6-32.8,92.1c-21.8,20.5-54.5,30.8-97.8,30.8
	c-16.4,0-32-1.2-46.7-3.6c-14.8-2.4-28.7-6-41.9-10.9l4.2-56.5c12,6,24.3,10.6,36.8,13.6c12.5,3.1,24.8,4.6,36.8,4.6
	c21.7,0,38.3-5,49.8-15c11.5-10,17.2-24.4,17.2-43.1v-20.6c-9.8,12.3-20.8,21.5-33,27.5c-12.2,6-26,9-41.4,9
	c-29.1,0-52.7-10.3-70.7-30.8c-18-20.5-27-47.6-27-81.1c0-33.9,9.3-61.2,27.8-82.1c18.5-20.9,42.7-31.3,72.3-31.3
	c15.7,0,29.8,3.4,42.3,10.3C4581.1,459.2,4592.4,469.6,4602.5,483.6z M4550.4,498.7c-13.6,0-24.5,5.1-32.8,15.3
	c-8.3,10.2-12.4,23.7-12.4,40.5s4.1,30.2,12.4,40.3c8.3,10.1,19.2,15.1,32.8,15.1c13.6,0,24.6-5.1,33-15.2
	c8.4-10.1,12.6-23.5,12.6-40.2c0-16.7-4.2-30.1-12.6-40.4C4575,503.9,4564,498.7,4550.4,498.7z"/>
<path class="st0" d="M4942,562.3v18.5h-155.2c1.5,14.4,7.8,25.5,18.7,33.4c10.9,7.8,25.6,11.8,44.1,11.8c11.1,0,22.7-1.5,35.1-4.6
	c12.3-3.1,25-7.7,38-13.9v54.2c-12.3,4.5-25.2,7.8-38.5,10.1c-13.4,2.2-27.3,3.4-41.9,3.4c-40.3,0-71.8-10.6-94.5-31.9
	c-22.7-21.3-34-50.8-34-88.6c0-34.4,10.5-61.8,31.4-82.1c20.9-20.3,49.2-30.4,84.7-30.4c35.8,0,63.5,10.4,82.9,31.3
	C4932.2,494.2,4942,523.9,4942,562.3z M4875,536.1c-1.5-14.8-6.3-26.5-14.3-35c-8-8.5-18.1-12.7-30.4-12.7c-12.2,0-22.2,4.2-30,12.7
	c-7.8,8.5-12.6,20.1-14.3,35H4875z"/>
<path class="st0" d="M5140.8,444.6l-4,65.3c-3.1-1.3-6.5-2.2-10.3-2.8c-3.8-0.6-8.2-0.9-13.2-0.9c-18.1,0-31.7,5.8-40.8,17.4
	c-9.2,11.6-13.8,28.7-13.8,51.2V669h-75.8V447.9h67.6v42.2c7.7-16.4,17.1-28.5,28.1-36.3c11.1-7.8,24.1-11.8,39.3-11.8
	c3.9,0,11.1,0.8,21.4,2.3L5140.8,444.6z"/>
</svg>
