<?xml version="1.0" encoding="utf-8"?>
<!-- Generator: Adobe Illustrator 23.1.0, SVG Export Plug-In . SVG Version: 6.00 Build 0)  -->
<svg version="1.1" id="研究所小_logo_xA0_影像_1_"
	 xmlns="http://www.w3.org/2000/svg" xmlns:xlink="http://www.w3.org/1999/xlink" x="0px" y="0px" viewBox="0 0 7207.9 1000"
	 style="enable-background:new 0 0 7207.9 1000;" xml:space="preserve">
<style type="text/css">
	.st0{enable-background:new    ;}
	.st1{fill:#001A6B;}
	.st2{fill:#073D83;}
	.st3{fill:#66BAC3;}
</style>
<g class="st0">
	<path class="st1" d="M1021.4,370.6h83.1l66.6,232.2l65.7-232.2h81.5L1217.1,669h-99.7L1021.4,370.6z"/>
	<path class="st1" d="M1340.7,346.5h75.8V408h-75.8V346.5z M1340.7,447.9h75.8V669h-75.8V447.9z"/>
	<path class="st1" d="M1635.7,453.6l-7.3,53.3c-10.1-5.7-20.3-10.1-30.5-13.1c-10.3-3-20.1-4.5-29.5-4.5c-9.2,0-16.4,1.6-21.4,4.9
		s-7.6,7.9-7.6,14c0,7.8,10.3,14.6,30.9,20.2c6.4,1.8,11.5,3.3,15.3,4.4c23.5,7,39.9,15.5,49.2,25.6c9.3,10.1,14,23.9,14,41.4
		c0,23.4-9.1,41.8-27.3,55.2c-18.2,13.4-43.3,20.2-75.2,20.2c-13.6,0-27-1-40.2-3.1s-26.2-5.2-38.9-9.4l4.8-56.7
		c10.6,5.5,21.7,9.6,33.2,12.5s23.1,4.3,34.9,4.3c11.1,0,19.4-1.5,25-4.5s8.4-7.5,8.4-13.5c0-9-11.3-16.8-34-23.5
		c-5.6-1.7-10-3-13.2-4c-23.1-7.6-39.2-16-48.3-25.3c-9.1-9.3-13.6-21.5-13.6-36.6c0-23.1,9.1-41,27.3-53.9
		c18.2-12.8,43.8-19.2,76.8-19.2c10.8,0,21.8,1,33.2,2.9C1612.8,446.9,1624.2,449.8,1635.7,453.6z"/>
	<path class="st1" d="M1689.5,346.5h75.8v132.1c7.7-11.9,17.8-21,30.3-27.2s26.8-9.3,42.7-9.3c27,0,47.6,8.3,61.7,24.9
		s21.2,40.8,21.2,72.8V669H1846V555.4c0-17.4-3.1-30.3-9.2-38.7c-6.2-8.5-15.5-12.7-28.1-12.7c-13.2,0-23.7,5.3-31.6,16
		c-7.9,10.6-11.9,24.9-11.9,42.8V669h-75.8L1689.5,346.5L1689.5,346.5z"/>
	<path class="st1" d="M1975.4,346.5h75.8V408h-75.8L1975.4,346.5L1975.4,346.5z M1975.4,447.9h75.8V669h-75.8L1975.4,447.9
		L1975.4,447.9z"/>
	<path class="st1" d="M2341,539.7V669h-75.2V555.4c0-17.4-3.1-30.3-9.2-38.7c-6.2-8.5-15.5-12.7-28.1-12.7c-13.2,0-23.7,5.3-31.6,16
		c-7.9,10.6-11.9,24.9-11.9,42.8V669h-75.8V447.9h68.9v39.7c8.7-14.8,19.9-26.1,33.6-33.9c13.7-7.8,29.2-11.7,46.4-11.7
		c27,0,47.6,8.3,61.7,24.9C2333.9,483.5,2341,507.8,2341,539.7z"/>
	<path class="st1" d="M2592.9,374l-5.9,61.5c-12.2-5.2-23.9-9.1-35.1-11.7c-11.2-2.6-22-3.9-32.5-3.9c-16.1,0-28.7,2.6-37.7,7.7
		s-13.5,12.1-13.5,21.1c0,6.3,2.3,11.8,6.9,16.5c4.6,4.7,11.5,8.6,20.8,11.7c3.1,1,7.5,2.4,13.2,4.2c34.2,11.1,56.8,20.8,68,29.2
		c10.5,8.1,18.2,17.4,23.1,27.8c4.9,10.4,7.3,22.6,7.3,36.6c0,32.9-10.9,58-32.8,75.3c-21.8,17.3-53.5,25.9-94.9,25.9
		c-15,0-30-1-45-3.1s-30-5.2-44.8-9.4l6.7-66.6c14,6.3,27.6,11.1,40.8,14.4c13.2,3.3,25.7,4.9,37.5,4.9c15.7,0,28.1-2.9,37.2-8.8
		c9.1-5.9,13.6-13.9,13.6-23.9c0-12.5-14.6-23.7-43.7-33.8c-7-2.4-12.4-4.3-16.2-5.7c-28.4-10.2-48.7-22.1-60.9-35.6
		c-12.2-13.5-18.3-30.8-18.3-51.8c0-30,10.7-53,32.1-69.1c21.4-16.1,52.1-24.1,92.2-24.1c14.7,0,28.8,0.9,42.4,2.6
		C2567.2,367.7,2580.3,370.4,2592.9,374z"/>
	<path class="st1" d="M2749.1,372.7v75.2h54.2v54.6h-54.2v76.2c0,16.4,2.7,27.9,8,34.6c5.3,6.7,14.4,10.1,27.3,10.1
		c1.8,0,4.1-0.2,6.9-0.7c2.8-0.5,6.8-1.4,12-2.6l1.3,49.3c-8.1,1.8-16,3.2-23.6,4.2s-15.1,1.5-22.4,1.5c-30,0-51.6-7.4-65-22.2
		s-20.1-38.8-20.1-72.1v-78.3h-42.6v-54.6h46.8v-51L2749.1,372.7z"/>
	<path class="st1" d="M2958.9,442c39.9,0,71.1,10.3,93.5,30.9c22.5,20.6,33.7,49.1,33.7,85.7c0,36.3-11.2,64.7-33.7,85.2
		c-22.5,20.6-53.6,30.9-93.5,30.9c-39.8,0-70.8-10.3-93.2-30.9c-22.4-20.6-33.6-49-33.6-85.2c0-36.5,11.2-65.1,33.6-85.7
		C2888.1,452.3,2919.1,442,2958.9,442z M2958.9,494.9c-14.3,0-25.9,5.8-34.7,17.3c-8.9,11.5-13.3,26.8-13.3,45.9
		c0,18.8,4.4,33.9,13.3,45.5c8.9,11.5,20.5,17.3,34.7,17.3c14.6,0,26.2-5.7,35-17.1c8.7-11.4,13.1-26.6,13.1-45.7
		c0-19.2-4.4-34.5-13.1-46C2985.1,500.7,2973.5,494.9,2958.9,494.9z"/>
	<path class="st1" d="M3289.2,444.6l-4,65.3c-3.1-1.3-6.5-2.2-10.3-2.8c-3.8-0.6-8.2-0.9-13.2-0.9c-18.1,0-31.7,5.8-40.8,17.4
		c-9.2,11.6-13.8,28.7-13.8,51.2V669h-75.8V447.9h67.6v42.2c7.7-16.4,17.1-28.5,28.1-36.3c11.1-7.8,24.1-11.8,39.3-11.8
		c3.9,0,11.1,0.8,21.4,2.3L3289.2,444.6z"/>
	<path class="st1" d="M3451.3,370.6h79.6v128.9l92.4-128.9h89l-109.6,137.1L3723.6,669h-98.9l-93.9-138.4V669h-79.6L3451.3,370.6
		L3451.3,370.6z"/>
	<path class="st1" d="M3892.6,513.8c19.6,5,34.4,13.4,44.5,25.2s15.1,26.4,15.1,43.9c0,27.3-12.2,48.9-36.6,64.8
		c-24.4,15.9-57.9,23.8-100.5,23.8c-13.2,0-26.3-0.8-39.4-2.5c-13.1-1.7-26.2-4.3-39.4-7.8l4.4-61.9c10.8,5.3,22,9.3,33.8,12
		s24,4,36.7,4c19.6,0,35-3.5,46.1-10.4s16.7-16.3,16.7-28.2c0-10.9-4.2-19.2-12.7-25c-8.5-5.7-20.8-8.6-36.8-8.6h-37v-52.5h34
		c15,0,27.1-3.1,36.3-9.2c9.2-6.2,13.9-14.1,13.9-23.9c0-10.4-4.7-18.7-14.1-24.9c-9.4-6.2-22-9.3-37.8-9.3
		c-11.5,0-23.1,1.1-34.9,3.4c-11.8,2.2-23.5,5.5-35.3,9.9l-3.6-55.4c14.7-4.3,29.6-7.6,44.6-9.8c15-2.2,30.4-3.3,46.1-3.3
		c34.7,0,61.7,7.1,80.9,21.4s28.9,34.1,28.9,59.4c0,16.2-4.6,29.9-13.8,40.8C3923.8,500.6,3910.4,508.7,3892.6,513.8z"/>
	<path class="st1" d="M4113.7,363.3c37.4,0,65.7,13.2,85,39.6s29,65.3,29,116.8s-9.6,90.4-28.8,116.7
		c-19.2,26.3-47.6,39.5-85.2,39.5c-37.5,0-65.9-13.2-85.1-39.5c-19.2-26.3-28.9-65.2-28.9-116.7c0-51.4,9.7-90.3,29-116.7
		S4076.3,363.3,4113.7,363.3z M4113.7,416.2c-13.6,0-23.6,8.3-30,25s-9.7,42.6-9.7,77.7c0,35.6,3.2,61.7,9.7,78.3
		c6.4,16.7,16.4,25,30,25c13.3,0,23.1-8.4,29.5-25.1c6.4-16.7,9.6-42.8,9.6-78.2c0-35.3-3.1-61.2-9.4-77.8
		C4137,424.5,4127.1,416.2,4113.7,416.2z"/>
	<path class="st1" d="M4378.7,363.3c37.4,0,65.7,13.2,85,39.6s29,65.3,29,116.8s-9.6,90.4-28.8,116.7
		c-19.2,26.3-47.6,39.5-85.2,39.5c-37.5,0-65.9-13.2-85.1-39.5s-28.9-65.2-28.9-116.7c0-51.4,9.7-90.3,29-116.7
		S4341.3,363.3,4378.7,363.3z M4378.7,416.2c-13.6,0-23.6,8.3-30,25s-9.7,42.6-9.7,77.7c0,35.6,3.2,61.7,9.7,78.3
		c6.4,16.7,16.4,25,30,25c13.3,0,23.1-8.4,29.5-25.1c6.4-16.7,9.6-42.8,9.6-78.2c0-35.3-3.1-61.2-9.4-77.8
		C4402,424.5,4392.1,416.2,4378.7,416.2z"/>
	<path class="st1" d="M4643.6,363.3c37.4,0,65.7,13.2,85,39.6s29,65.3,29,116.8s-9.6,90.4-28.8,116.7
		c-19.2,26.3-47.6,39.5-85.2,39.5c-37.5,0-65.9-13.2-85.1-39.5s-28.9-65.2-28.9-116.7c0-51.4,9.7-90.3,29-116.7
		S4606.3,363.3,4643.6,363.3z M4643.6,416.2c-13.6,0-23.6,8.3-30,25s-9.7,42.6-9.7,77.7c0,35.6,3.2,61.7,9.7,78.3
		c6.4,16.7,16.4,25,30,25c13.3,0,23.1-8.4,29.5-25.1c6.4-16.7,9.6-42.8,9.6-78.2c0-35.3-3.1-61.2-9.4-77.8
		C4666.9,424.5,4657.1,416.2,4643.6,416.2z"/>
</g>
<g>
	<path class="st1" d="M4915.3,554.5c4.9-1,15.1-1.9,30.8-2.9c7.8-1,13.7-1.5,17.6-1.5c0,2.9-0.5,6.8-1.5,11.7
		c-1,15.6-1.5,27.8-1.5,36.6c-34.2,2.9-67.9,6.8-101.1,11.7l-14.6-48.3c12.7-8.8,28.3-27.8,46.9-57.1c-11.7,1-24.9,2.4-39.6,4.4
		l-14.6-48.3c16.6-15.6,35.2-52.7,55.7-111.3l60.1,19c-7.8,12.7-19.5,31.7-35.2,57.1c-8.8,13.7-15.2,23.4-19,29.3
		c5.9,0,12.7,0,20.5,0c4.9-8.8,9.3-18.1,13.2-27.8l48.3,23.4c-14.6,24.4-34.7,56.2-60.1,95.2
		C4918.2,549.7,4916.3,552.6,4915.3,554.5z M5000.3,576.5c0-1.9,0-5.4,0-10.3c1-6.8,1.5-11.7,1.5-14.6c-8.8,1-16.6,2.4-23.4,4.4
		l-20.5-49.8c19.5-14.6,38.6-37.1,57.1-67.4h-51.3V389h80.6c-2.9-11.7-5.9-22.9-8.8-33.7l64.5-2.9c2.9,10.8,5.9,23,8.8,36.6h80.6
		v49.8h-105.5c-5.9,6.8-13.7,16.1-23.4,27.8c-12.7,15.6-22.5,26.9-29.3,33.7c7.8-1,20.5-1.5,38.1-1.5c16.6-1,29.3-1.5,38.1-1.5
		c-7.8-10.7-16.1-22-24.9-33.7l41-23.4c25.4,29.3,50.3,60.1,74.7,92.3l-45.4,29.3c-1-1.9-2.9-5.4-5.9-10.3c-2.9-3.9-5.4-6.8-7.3-8.8
		c-2.9,0-5.9,0-8.8,0v93.8c0,6.8,2.4,10.3,7.3,10.3c4.9,1,7.8-2.4,8.8-10.3c2.9-10.7,4.9-26.4,5.9-46.9c3.9,1,9.3,2.9,16.1,5.9
		c11.7,4.9,21,8.3,27.8,10.3c-2,24.4-4.9,42.5-8.8,54.2c-3.9,22.5-20,33.7-48.3,33.7h-19c-30.3,1-44.9-13.2-43.9-42.5v-104
		c-7.8,0-14.6,0-20.5,0c0,12.7-0.5,21.5-1.5,26.4c1,52.7-23,96.2-71.8,130.4c-7.8-10.8-17.1-22-27.8-33.7c-5.9,1-16.1,2.4-30.8,4.4
		c-36.1,3.9-62,7.3-77.6,10.3l-7.3-54.2c4.9-1,14.1-1.9,27.8-2.9c49.8-4.9,83.5-8.3,101.1-10.3c0,8.8-0.5,18.1-1.5,27.8
		C4989,628.8,5000.3,605.8,5000.3,576.5z"/>
	<path class="st1" d="M5223.5,491.5h357.4v65.9h-357.4V491.5z"/>
	<path class="st1" d="M5659.2,352.4l57.1,2.9c0,1-0.5,2.4-1.5,4.4c-2,2.9-4.9,7.8-8.8,14.6h87.9v29.3c14.6-20.5,24.4-37.6,29.3-51.3
		l55.7,2.9c-2.9,5.9-5.9,12.2-8.8,19h92.3v41h-46.9c1,1,2.4,2.9,4.4,5.9c2.9,4.9,5.9,8.8,8.8,11.7l-54.2,4.4
		c-2-2.9-4.4-6.8-7.3-11.7c-3.9-4.9-6.8-8.3-8.8-10.3h-11.7c-2,2.9-4.9,7.3-8.8,13.2c-2.9,3.9-5.4,7.3-7.3,10.3
		c-6.8-2.9-14.2-5.4-22-7.3c1.9,3.9,3.4,8.8,4.4,14.6h143.6v76.2H5920v65.9h-212.4v13.2h225.6V701h-58.6v-11.7h-167v13.2h-57.1
		V522.3h-32.2v-76.2h16.1c-2.9-2.9-7.8-7.3-14.6-13.2c-6.8-5.9-11.7-10.3-14.6-13.2C5631.3,396.3,5649.4,373.9,5659.2,352.4z
		 M5679.7,415.4c-7.8,9.8-17.6,20-29.3,30.8h108.4c-1-5.9-2.9-10.3-5.9-13.2l-49.8,4.4c-3.9-7.8-8.8-15.1-14.6-22L5679.7,415.4
		L5679.7,415.4z M5676.7,485.7v13.2h221.2v-13.2H5676.7z M5707.5,537v14.6h153.8V537H5707.5z M5874.5,639.5h-167v14.6h167V639.5z
		 M5744.1,415.4c2.9,3.9,6.3,8.8,10.3,14.6l42.5-2.9c-5.9-1.9-11.2-3.4-16.1-4.4l4.4-7.3L5744.1,415.4L5744.1,415.4z"/>
	<path class="st1" d="M6118.2,556V362.6H6335V556h-82v19h83.5v48.3H6253v19h96.7v48.3h-249V660c-34.2,5.9-67.4,12.2-99.6,19
		l-8.8-55.7c2.9,0,6.8-0.5,11.7-1.5c10.7-1,18.5-1.9,23.4-2.9v-76.2H6001V490h26.4v-68.8h-27.8V367h109.9v54.2h-27.8V490h26.4v52.7
		h-26.4v68.8c8.8-1.9,18.5-3.4,29.3-4.4c-1,10.8-1.5,22.5-1.5,35.2h89.4v-19h-80.6V575h80.6v-19H6118.2z M6172.4,411v26.4h26.4V411
		H6172.4z M6172.4,481.3v26.4h26.4v-26.4H6172.4z M6280.8,411H6253v26.4h27.8V411z M6280.8,507.7v-26.4H6253v26.4H6280.8z"/>
	<path class="st1" d="M6650.6,491.5c8.8,9.8,23.4,25.4,43.9,46.9c17.6,18.6,29.8,31.7,36.6,39.6l-42.5,32.2
		c-2.9-2.9-7.8-8.8-14.6-17.6c-2.9-3.9-5.4-6.8-7.3-8.8c-7.8,1-20.5,1.5-38.1,1.5c-15.6,1-27.8,1.5-36.6,1.5V641
		c2.9,38.1-15.2,57.1-54.2,57.1c-13.7,1-30.8,1.5-51.3,1.5c-1-3.9-2.4-10.3-4.4-19c-3.9-13.7-6.8-22.9-8.8-27.8
		c-21.5,13.7-43.5,28.3-65.9,43.9c-2-2.9-4.9-7.3-8.8-13.2c-9.8-15.6-18.1-26.4-24.9-32.2c29.3-15.6,59.6-35.2,90.8-58.6
		c-5.9,0-10.8,0-14.6,0c-1,0-3.4,0.5-7.3,1.5c-14.6,1-24.4,2.4-29.3,4.4l-16.1-54.2c16.6-2.9,32.7-7.8,48.3-14.6
		c1.9-1,5.4-2.4,10.3-4.4c12.7-5.9,29.3-14.1,49.8-24.9c-4.9,0-11.7,0.5-20.5,1.5c-8.8,0-15.6,0.5-20.5,1.5
		c-7.8,0-19.5,1.5-35.2,4.4c-1,0-2,0-2.9,0l-16.1-49.8c17.6-3.9,29.8-7.8,36.6-11.7c10.7-6.8,22.9-14.6,36.6-23.4
		c-8.8,0-22.5,0.5-41,1.5c-18.6,0-32.2,0.5-41,1.5c-2-6.8-4.4-17.1-7.3-30.8c-2-9.8-3.4-17.1-4.4-22c142.6-1.9,249-5.9,319.3-11.7
		l13.2,51.3c-45.9,2.9-93.8,5.4-143.6,7.3c-9.8,5.9-23.9,14.2-42.5,24.9c-11.7,5.9-20,10.3-24.9,13.2c33.2-1.9,59.6-2.9,79.1-2.9
		c3.9-1.9,9.3-4.9,16.1-8.8c12.7-6.8,29.3-16.6,49.8-29.3l43.9,39.6c-61.5,30.3-123.6,59.1-186,86.4c14.6,0,39.6-1,74.7-2.9
		c17.6-1,30.8-1.5,39.6-1.5c-6.8-7.8-13.2-15.1-19-22L6650.6,491.5z M6530.4,589.7c-18.6,0-37.6,1-57.1,2.9l33.7,35.2
		c-10.8,6.8-20.5,14.2-29.3,22c15.6,0,26.8,0,33.7,0c13.7,1,20-6.3,19-22L6530.4,589.7L6530.4,589.7z M6638.8,589.7
		c31.2,19.5,63,40.1,95.2,61.5l-36.6,43.9c-17.6-13.7-45.9-33.2-85-58.6c-4.9-2.9-8.3-4.9-10.3-5.9L6638.8,589.7z"/>
	<path class="st1" d="M6837.2,554.5c4.9-1,15.1-1.9,30.8-2.9c7.8-1,13.7-1.5,17.6-1.5c0,2.9-0.5,6.8-1.5,11.7
		c-1,15.6-1.5,27.8-1.5,36.6c-34.2,2.9-67.9,6.8-101.1,11.7l-14.6-48.3c12.7-8.8,28.3-27.8,46.9-57.1c-11.7,1-24.9,2.4-39.6,4.4
		l-14.6-48.3c16.6-15.6,35.2-52.7,55.7-111.3l60.1,19c-7.8,12.7-19.5,31.7-35.2,57.1c-8.8,13.7-15.2,23.4-19,29.3
		c5.9,0,12.7,0,20.5,0c4.9-8.8,9.3-18.1,13.2-27.8l48.3,23.4c-14.6,24.4-34.7,56.2-60.1,95.2
		C6840.1,549.7,6838.1,552.6,6837.2,554.5z M6922.1,576.5c0-1.9,0-5.4,0-10.3c1-6.8,1.5-11.7,1.5-14.6c-8.8,1-16.6,2.4-23.4,4.4
		l-20.5-49.8c19.5-14.6,38.6-37.1,57.1-67.4h-51.3V389h80.6c-2.9-11.7-5.9-22.9-8.8-33.7l64.5-2.9c2.9,10.8,5.9,23,8.8,36.6h80.6
		v49.8h-105.5c-5.9,6.8-13.7,16.1-23.4,27.8c-12.7,15.6-22.5,26.9-29.3,33.7c7.8-1,20.5-1.5,38.1-1.5c16.6-1,29.3-1.5,38.1-1.5
		c-7.8-10.7-16.1-22-24.9-33.7l41-23.4c25.4,29.3,50.3,60.1,74.7,92.3l-45.4,29.3c-1-1.9-2.9-5.4-5.9-10.3c-2.9-3.9-5.4-6.8-7.3-8.8
		c-2.9,0-5.9,0-8.8,0v93.8c0,6.8,2.4,10.3,7.3,10.3c4.9,1,7.8-2.4,8.8-10.3c2.9-10.7,4.9-26.4,5.9-46.9c3.9,1,9.3,2.9,16.1,5.9
		c11.7,4.9,21,8.3,27.8,10.3c-2,24.4-4.9,42.5-8.8,54.2c-3.9,22.5-20,33.7-48.3,33.7h-19c-30.3,1-44.9-13.2-43.9-42.5v-104
		c-7.8,0-14.6,0-20.5,0c0,12.7-0.5,21.5-1.5,26.4c1,52.7-23,96.2-71.8,130.4c-7.8-10.8-17.1-22-27.8-33.7c-5.9,1-16.1,2.4-30.8,4.4
		c-36.1,3.9-62,7.3-77.6,10.3l-7.3-54.2c4.9-1,14.1-1.9,27.8-2.9c49.8-4.9,83.5-8.3,101.1-10.3c0,8.8-0.5,18.1-1.5,27.8
		C6910.9,628.8,6922.1,605.8,6922.1,576.5z"/>
</g>
<g>
	<g class="st0">
		<path class="st2" d="M886.8,139.1c-64.4,0-128.9,0.2-193.3-0.2c-8.4,0-14.5,2.5-20.7,7.8c-32.5,27.9-65.1,55.6-98.2,82.8
			c-5.1,4.2-12.9,7.1-19.4,7.3c-36.3,0.7-72.5,0.6-108.8,0.1c-5.2-0.1-11.4-2.3-15.4-5.6c-33.9-28-67.6-56.3-101-84.8
			c-6.3-5.3-12.5-7.6-20.8-7.6c-64,0.3-128.1,0.2-192.1,0.2c-4.2,0-8.4,0-13.2,0c0,242.7,0,484.3,0,726.5c5.2,0,9.5,0,13.7,0
			c64.4,0,128.9,0.2,193.3-0.3c5.9,0,12.9-2.5,17.4-6.2c34.3-28.2,67.9-57.1,102.1-85.3c4.8-4,12.2-6.7,18.5-6.8
			c35.1-0.6,70.2-0.7,105.3,0c6.6,0.1,14.4,3.1,19.5,7.3c34.6,28.3,68.6,57.4,103.1,86c3.5,2.9,8.7,5.2,13.2,5.2
			c66.4,0.3,132.7,0.2,199.1,0.1c3.4,0,6.7,0,10.8,0c0-242.5,0-483.8,0-726.5C895.1,139.1,891,139.1,886.8,139.1z"/>
	</g>
	<path class="st3" d="M421.5,600c-3.6,0-8.2,0.5-10.8,2.6c-27.1,22.2-53.8,44.8-81.2,67.7c2.8,3.4,14,15.1,17.8,20
		c18.9-17,48.8-42.8,68.7-58.6c4.6-3.7,11.6-6.1,17.5-6.3c28.9-0.6,57.8-0.4,86.7-0.3c20,0.1,41.8-4.4,59.5,2.1s31.4,24.1,46.8,36.9
		c10,8.2,19.9,16.5,30.4,25.2c6.2-6.7,11.3-12.2,17.3-18.7c-27.9-23.4-55-46.1-82.3-68.6c-2.3-1.9-6.5-2-9.8-2.1
		C528.7,599.8,475.1,599.8,421.5,600z"/>
	<path class="st3" d="M315.5,289c-16.7-13.9-32.2-26.8-48.1-40.1c-6.2,6.7-11.4,12.3-17.3,18.7c16.1,13.5,31.6,26.5,47.7,39.9
		C303.8,301.4,309,295.9,315.5,289z"/>
	<path class="st3" d="M357.4,243c-16.2-13.6-31.3-26.2-47.5-39.9c-6,6.7-11.1,12.3-17.2,19c16.3,13.7,31.8,26.6,48,40.1
		C346.8,255.3,351.9,249.4,357.4,243z"/>
	<path class="st3" d="M371.1,450.3c6.3,5.2,8.8,10.6,8.6,18.7c-0.5,22-0.5,44,0,65.9c0.2,8.5-2.2,14.3-8.9,19.8
		c-25.7,21-82.2,67.1-86.1,69.3c8.5,8.1,14,13.4,20.1,19.3c32.2-27,64.4-53.8,96.3-81.1c2.6-2.2,3.4-7.6,3.5-11.5
		c0.3-32.4,0.5-64.8-0.2-97.1c-0.1-4.9-3.3-11.1-7.1-14.3c-51.7-43.9-103.7-87.4-155.7-131c-7.8-6.5-15.9-12.5-15.9-12.5
		s-16.4,16.7-16.6,18.2c2.3,2.1,5,4.8,7.9,7.2C268.3,364.2,319.5,407.4,371.1,450.3z"/>
	<path class="st3" d="M331.2,334.9c2.1,2,4.7,4.7,7.6,7.1c22.1,18.6,44,37.5,66.7,55.5c5.2,4.1,12.9,7.1,19.5,7.2
		c42.8,0.6,85.7-1.2,128.4,0.9c26.1,1.3,46.4-5.4,65-23.9c17.1-17,36.7-31.4,56.1-47.7c-6-6.4-11.1-12-17.4-18.8
		c-23.5,19.7-45.7,38.8-68.5,57.2c-4.7,3.8-11.5,6.7-17.4,6.8c-46.3,0.6-92.6,0.5-138.9,0c-5.5-0.1-11.9-2.8-16.4-6.3
		c-18.1-14.4-35.7-29.5-53.4-44.4c-4.8-4-14-12.4-14-12.4S331.3,333.7,331.2,334.9z"/>
	<path class="st3" d="M698.7,476.1c3.8-3.3,6.6-5.3,9.8-8.1c16.7-14.1,33.4-28.2,51-43c-6.6-6.5-12.2-12-18.2-18
		c-26.4,22.2-52.2,43.7-77.7,65.4c-2.1,1.8-4,5.1-4.1,7.7c-0.4,14.6-0.3,29.3-0.1,44c0,2.4,1.3,5.5,3.1,7.1
		c26.1,22.2,52.4,44.2,78.9,66.5c6.3-5.8,11.9-11,18.9-17.5c-24-20.2-46.2-38.7-68-57.5c-3.2-2.8-7.2-7-7.1-10.9
		c0.4-16.8,0.4-18.4,0.9-25.5C688.1,483.5,694.5,479.7,698.7,476.1z"/>
	<path class="st3" d="M744.1,348.7c5.9,5.8,3.4,4.9,8.5,0.7c14.5-11.9,28.2-23.4,43.1-36c-4.9-5.5-8.8-10.1-13-14.3
		c-5-5-3-5-8.6-0.4c-14.2,11.6-28.3,23.4-43,35.8C735.8,339.9,739.8,344.5,744.1,348.7z"/>
	<path class="st3" d="M306.8,527c-5.9,5.5-12.5,10.3-18.7,15.5c-14.4,12.1-28.7,24.3-43.8,37c6.1,6.6,11.2,12.2,17.3,18.7
		c17.6-14.7,33.9-28.3,50.1-42c39.3-33.1,33.2-18.1,32.8-71c-0.1-11.2-3.3-11.5-6.8-14.6c-22.4-19.5-45.3-38.4-68.1-57.5
		c-2.5-2.1-5.4-3.9-8.5-6c-5.8,6.3-10.9,11.9-16.6,18.3c22.7,19.1,44.4,37.6,66.4,55.7c6.3,5.1,8.3,10.8,8.8,18.7
		C320.4,511.7,315.3,519.1,306.8,527z"/>
	<path class="st3" d="M705.6,307.8c16.1-13.5,31.6-26.6,47.6-40c-6.4-6.6-11.8-12.3-17.8-18.5c-15.8,13.4-31,26.2-47,39.7
		C694.6,295.7,699.7,301.3,705.6,307.8z"/>
	<path class="st3" d="M443.3,339.5c38.9,0.6,77.9,0.6,116.8,0c6.3-0.1,13.7-2.8,18.5-6.7c37.5-30.8,74.6-62.3,111.8-93.5
		c6.7-5.6,13.3-11.3,20.6-17.5c-6.3-6.6-11.5-12.1-17.2-18.1c-3.2,2.5-6,4.4-8.6,6.6c-38.4,32.2-77,64.2-115.1,96.8
		c-6.7,5.7-13.4,7.9-21.9,7.8c-30.5-0.3-60.9-0.5-91.4,0.1c-10,0.2-17.6-2.6-25-9.2c-13.7-12.2-28-23.7-42.6-36
		c-6.2,6.7-11.4,12.2-17.4,18.7c18.1,15.3,35.1,30.3,53,44.3C429.8,336.5,437,339.4,443.3,339.5z"/>
	<path class="st3" d="M255.2,651.5c-16.2,13.6-31.6,26.5-48.6,40.8c7.1,6.3,12.7,11.3,19.3,17.2c15.5-13,30.8-25.9,46.9-39.4
		C266.4,663.3,261.2,657.8,255.2,651.5z"/>
	<path class="st3" d="M773.2,380.3c6.3,6.6,11.7,12.3,17.6,18.6c16.3-13.7,31.7-26.7,47.6-40.1c-6.3-6.7-11.6-12.2-17.5-18.5
		C805,353.6,789.5,366.6,773.2,380.3z"/>
	<path class="st3" d="M773.3,624.5c16.1,13.5,31.6,26.5,47.7,40c6-6.5,11.4-12.3,17.4-18.8c-16.2-13.6-31.5-26.4-47.7-40
		C784.4,612.6,779.2,618.2,773.3,624.5z"/>
	<path class="st3" d="M562.6,664.8c-40.5-0.2-81-0.3-121.5,0.1c-4.9,0.1-10.6,2.3-14.4,5.4C384.8,705,343.2,740,301.6,775
		c-2.8,2.4-5.4,5.1-8.6,8.1c6,6.5,11.2,12.1,16.6,18c3.2-2.4,5.6-4.1,8-6.1c38.4-32.2,76.6-64.7,115.4-96.4c5.7-4.6,14.2-7.8,21.5-8
		c32-0.9,64-0.7,96-0.1c6.3,0.1,13.5,2.9,18.5,6.8c18.5,14.5,36.2,30,54.2,45.1c23.3,19.5,46.5,39,70.2,58.8
		c6-6.4,11.3-11.9,17.6-18.6c-46.4-38.9-91.5-76.9-136.9-114.6C571.4,665.8,566.5,664.9,562.6,664.8z"/>
	<path class="st3" d="M297.8,696.9c-16.3,13.7-31.8,26.8-47.3,39.8c6.6,6.6,12.2,12.1,18.2,18.1c15.5-13,30.7-25.8,46.6-39.2
		C309.2,709.1,304,703.6,297.8,696.9z"/>
	<path class="st3" d="M688.6,715.9c16.4,13.8,31.6,26.5,47.5,39.9c6.1-6.4,11.3-12,17.5-18.6c-16.7-14-31.9-26.8-48.1-40.4
		C699.6,703.4,694.4,709.3,688.6,715.9z"/>
	<path class="st3" d="M212.9,605.6c-16.6,14-31.8,26.9-47.6,40.2c6.4,6.9,11.5,12.4,17.3,18.7c15.9-13.4,31.2-26.2,47.8-40.1
		C223.9,617.5,218.6,611.7,212.9,605.6z"/>
	<path class="st3" d="M230.2,380.1c-16.4-13.8-31.8-26.8-47.8-40.2c-6.2,6.9-11.2,12.5-17.1,19.2c16.4,13.8,31.9,26.7,47.8,40.1
		C219.4,392.2,224.4,386.5,230.2,380.1z"/>
	<path class="st3" d="M795.6,691.7c-5.6,6.1-10.8,11.7-16.8,18.2c-7.9-6.4-15.3-12.3-22.6-18.5C706.8,650,657.6,608.5,608,567.3
		c-6.2-5.2-8.8-10.6-8.7-18.7c0.4-31.3,0-62.5,0.4-93.8c0.1-4.6,1.2-10.7,4.3-13.4c31.2-26.9,62.9-53.3,95.4-80.6
		c5.8,6.3,11.1,12.1,17.3,18.9c-21.8,18.3-41.4,37.6-63.8,52.9c-22.9,15.7-29.4,34-29.4,61.8c0,8.1,0,16.2,0,24.2
		c0,21.3,6.9,35,23.6,48.3c47.6,38,93.7,77.9,140.4,117.1C790,686.3,792.4,688.8,795.6,691.7z"/>
</g>
</svg>
