<?xml version="1.0" encoding="utf-8"?>
<!-- Generator: Adobe Illustrator 23.1.0, SVG Export Plug-In . SVG Version: 6.00 Build 0)  -->
<svg version="1.1" id="研究所小_logo_xA0_影像_1_"
	 xmlns="http://www.w3.org/2000/svg" xmlns:xlink="http://www.w3.org/1999/xlink" x="0px" y="0px" viewBox="0 0 4652.1 1000"
	 style="enable-background:new 0 0 4652.1 1000;" xml:space="preserve">
<style type="text/css">
	.st0{fill:#001A6B;}
	.st1{fill:url(#SVGID_1_);}
	.st2{fill:url(#SVGID_2_);}
	.st3{fill:url(#SVGID_3_);}
</style>
<g>
	<path class="st0" d="M1292.9,379.7l-6.9,62.4c-11.2-6.7-22.7-11.7-34.6-15s-24.1-4.9-36.7-4.9c-29.8,0-53.5,8.7-71.2,26
		c-17.6,17.4-26.5,40.7-26.5,69.9c0,29.4,9,52.8,27,70.2s42,26.1,71.9,26.1c11.8,0,23.8-1.4,36-4.3c12.2-2.9,24.6-7.2,37.1-12.9
		l4.8,67c-14.3,3.9-28.6,6.9-42.8,8.8c-14.3,2-28.7,2.9-43.3,2.9c-54.2,0-96.4-13.9-126.6-41.7s-45.4-66.5-45.4-116.2
		c0-47.5,14.9-85.1,44.7-113c29.8-27.9,70.3-41.8,121.4-41.8c17.1,0,33.3,1.4,48.6,4.1C1265.7,370.1,1279.8,374.2,1292.9,379.7z"/>
	<path class="st0" d="M1454.1,442c39.9,0,71.1,10.3,93.5,30.9c22.5,20.6,33.7,49.1,33.7,85.7c0,36.3-11.2,64.7-33.7,85.2
		c-22.5,20.6-53.6,30.9-93.5,30.9c-39.8,0-70.8-10.3-93.2-30.9c-22.4-20.6-33.6-49-33.6-85.2c0-36.5,11.2-65.1,33.6-85.7
		C1383.3,452.3,1414.4,442,1454.1,442z M1454.1,494.9c-14.3,0-25.9,5.8-34.7,17.3c-8.9,11.5-13.3,26.8-13.3,45.9
		c0,18.8,4.4,33.9,13.3,45.5c8.9,11.5,20.5,17.3,34.7,17.3c14.6,0,26.2-5.7,35-17.1c8.7-11.4,13.1-26.6,13.1-45.7
		c0-19.2-4.4-34.5-13.1-46C1480.3,500.7,1468.7,494.9,1454.1,494.9z"/>
	<path class="st0" d="M1824.7,374l-5.9,61.5c-12.2-5.2-23.9-9.1-35.1-11.7s-22-3.9-32.5-3.9c-16.1,0-28.7,2.6-37.7,7.7
		s-13.5,12.1-13.5,21.1c0,6.3,2.3,11.8,6.9,16.5s11.5,8.6,20.8,11.7c3.1,1,7.5,2.4,13.2,4.2c34.2,11.1,56.8,20.8,68,29.2
		c10.5,8.1,18.2,17.4,23.1,27.8c4.9,10.4,7.3,22.6,7.3,36.6c0,32.9-10.9,58-32.8,75.3c-21.8,17.3-53.5,25.9-94.9,25.9
		c-15,0-30-1-45-3.1s-30-5.2-44.8-9.4l6.7-66.6c14,6.3,27.6,11.1,40.8,14.4c13.2,3.3,25.7,4.9,37.5,4.9c15.7,0,28.1-2.9,37.2-8.8
		c9.1-5.9,13.6-13.9,13.6-23.9c0-12.5-14.6-23.7-43.7-33.8c-7-2.4-12.4-4.3-16.2-5.7c-28.4-10.2-48.7-22.1-60.9-35.6
		c-12.2-13.5-18.3-30.8-18.3-51.8c0-30,10.7-53,32.1-69.1s52.1-24.1,92.2-24.1c14.7,0,28.8,0.9,42.4,2.6
		C1799,367.7,1812.1,370.4,1824.7,374z"/>
	<path class="st0" d="M1961.6,370.6h96l113,298.4h-85l-21.2-63.2h-114.8l-22.3,63.2h-78.7L1961.6,370.6z M2008,437.2l-38.6,111.9h76
		L2008,437.2z"/>
	<path class="st0" d="M2188.1,370.6h99.3l86.5,178.9c2.9,6,6.4,14.4,10.3,25.1c3.9,10.7,8.3,23.8,13,39.4
		c-2.5-14.7-4.4-28.2-5.6-40.5c-1.2-12.3-1.8-23.6-1.8-33.8v-169h71.8V669h-98.9L2273,483.6c-4.2-8.5-8.1-17.8-11.5-27.8
		c-3.5-10-6.7-20.9-9.7-32.6c2.8,17.8,4.9,34.1,6.2,49s2,28,2,39.4V669h-71.8L2188.1,370.6L2188.1,370.6z"/>
	<path class="st0" d="M2651.3,370.6h121.4l54.6,179.3c2.1,7.1,3.8,15.2,5.1,24c1.3,8.9,2.3,18.4,3,28.7c1-11.1,2.2-21.2,3.8-30.5
		c1.5-9.3,3.3-17.2,5.2-23.8l54.6-177.6h119.5V669h-74.7V468.7c0-9.5,0.3-19.4,0.8-29.6c0.6-10.2,1.4-21.1,2.5-32.8
		c-2,9-4,17.5-6.1,25.7s-4.3,15.9-6.7,23.2L2867.1,669h-71.4L2730,458.8c-2.2-7.3-4.4-15.4-6.5-24.3s-4.1-18.3-5.9-28.2
		c1,14.1,1.8,26.8,2.4,38.1c0.6,11.3,0.9,19.8,0.9,25.5v199h-69.7V370.6H2651.3z"/>
	<path class="st0" d="M3282,553.3V669h-65.7l-1.7-34.4c-9,12.7-19.8,22.1-32.4,28c-12.7,6-28,8.9-45.9,8.9
		c-22.4,0-40.2-6.4-53.5-19.1c-13.3-12.7-19.9-29.7-19.9-51c0-24.5,9.7-42.7,29-54.5s49.1-17.7,89.2-17.7h29.6v-2.9
		c0-12-4.6-21.3-13.9-27.7c-9.2-6.4-22.7-9.7-40.3-9.7c-8.7,0-18.5,1.5-29.6,4.6s-23,7.6-35.7,13.4l-1.3-50c12.3-5.2,25.6-9,40-11.5
		c14.3-2.5,30.1-3.8,47.3-3.8c36.1,0,62.6,9,79.5,27C3273.6,486.6,3282,514.8,3282,553.3z M3197.8,568.4c-22.3,0-38.3,2.4-48.1,7.2
		s-14.7,12.6-14.7,23.2c0,7.7,2.6,13.9,7.9,18.7c5.2,4.8,12.2,7.1,20.9,7.1c13.7,0,24.9-4.6,33.7-13.9c8.7-9.2,13.1-21.3,13.1-36.1
		v-6.3L3197.8,568.4L3197.8,568.4z"/>
	<path class="st0" d="M3567.6,539.7V669h-75.2V555.4c0-17.4-3.1-30.3-9.2-38.7c-6.2-8.5-15.5-12.7-28.1-12.7
		c-13.2,0-23.7,5.3-31.6,16c-7.9,10.6-11.9,24.9-11.9,42.8V669h-75.8V447.9h68.9v39.7c8.7-14.8,19.9-26.1,33.6-33.9
		c13.7-7.8,29.2-11.7,46.4-11.7c27,0,47.6,8.3,61.7,24.9C3560.5,483.5,3567.6,507.8,3567.6,539.7z"/>
	<path class="st0" d="M3827.7,553.3V669H3762l-1.7-34.4c-9,12.7-19.8,22.1-32.4,28c-12.7,6-28,8.9-45.9,8.9
		c-22.4,0-40.2-6.4-53.5-19.1c-13.3-12.7-19.9-29.7-19.9-51c0-24.5,9.7-42.7,29-54.5s49.1-17.7,89.2-17.7h29.6v-2.9
		c0-12-4.6-21.3-13.9-27.7c-9.2-6.4-22.7-9.7-40.3-9.7c-8.7,0-18.5,1.5-29.6,4.6s-23,7.6-35.7,13.4l-1.3-50c12.3-5.2,25.6-9,40-11.5
		s30.1-3.8,47.3-3.8c36.1,0,62.6,9,79.5,27C3819.3,486.6,3827.7,514.8,3827.7,553.3z M3743.5,568.4c-22.3,0-38.3,2.4-48.1,7.2
		s-14.7,12.6-14.7,23.2c0,7.7,2.6,13.9,7.9,18.7c5.2,4.8,12.2,7.1,20.9,7.1c13.7,0,24.9-4.6,33.7-13.9s13.1-21.3,13.1-36.1v-6.3
		L3743.5,568.4L3743.5,568.4z"/>
	<path class="st0" d="M4045.9,483.6v-35.7h69.9v191.5c0,40.9-10.9,71.6-32.8,92.1c-21.8,20.5-54.5,30.8-97.8,30.8
		c-16.4,0-31.9-1.2-46.7-3.6c-14.8-2.4-28.7-6-41.9-10.9l4.2-56.5c12,6,24.3,10.6,36.8,13.6c12.5,3.1,24.8,4.6,36.8,4.6
		c21.7,0,38.3-5,49.8-15s17.2-24.4,17.2-43.1v-20.6c-9.8,12.3-20.8,21.5-33,27.5s-26,9-41.4,9c-29.1,0-52.7-10.3-70.7-30.8
		s-27-47.6-27-81.1c0-33.9,9.3-61.2,27.8-82.1s42.7-31.3,72.3-31.3c15.7,0,29.8,3.4,42.3,10.3
		C4024.5,459.2,4035.8,469.6,4045.9,483.6z M3993.8,498.7c-13.6,0-24.5,5.1-32.8,15.3c-8.3,10.2-12.4,23.7-12.4,40.5
		s4.1,30.2,12.4,40.3c8.3,10.1,19.2,15.1,32.8,15.1s24.6-5.1,33-15.2c8.4-10.1,12.6-23.5,12.6-40.2s-4.2-30.1-12.6-40.4
		C4018.4,503.9,4007.4,498.7,3993.8,498.7z"/>
	<path class="st0" d="M4385.4,562.3v18.5h-155.2c1.5,14.4,7.8,25.5,18.7,33.4c10.9,7.8,25.6,11.8,44.1,11.8
		c11.1,0,22.7-1.5,35.1-4.6c12.3-3.1,25-7.7,38-13.9v54.2c-12.3,4.5-25.2,7.8-38.5,10.1c-13.4,2.2-27.3,3.4-41.9,3.4
		c-40.3,0-71.8-10.6-94.5-31.9c-22.7-21.3-34-50.8-34-88.6c0-34.4,10.5-61.8,31.4-82.1c20.9-20.3,49.2-30.4,84.7-30.4
		c35.8,0,63.5,10.4,82.9,31.3C4375.6,494.2,4385.4,523.9,4385.4,562.3z M4318.4,536.1c-1.5-14.8-6.3-26.5-14.3-35
		s-18.1-12.7-30.4-12.7c-12.2,0-22.2,4.2-30,12.7s-12.6,20.1-14.3,35H4318.4z"/>
	<path class="st0" d="M4584.2,444.6l-4,65.3c-3.1-1.3-6.5-2.2-10.3-2.8c-3.8-0.6-8.2-0.9-13.2-0.9c-18.1,0-31.7,5.8-40.8,17.4
		c-9.2,11.6-13.8,28.7-13.8,51.2V669h-75.8V447.9h67.6v42.2c7.7-16.4,17.1-28.5,28.1-36.3c11.1-7.8,24.1-11.8,39.3-11.8
		c3.9,0,11.1,0.8,21.4,2.3L4584.2,444.6z"/>
</g>
<radialGradient id="SVGID_1_" cx="473.175" cy="595.1" r="360.6937" gradientTransform="matrix(1 0 0 1 0 -78)" gradientUnits="userSpaceOnUse">
	<stop  offset="0" style="stop-color:#E20100"/>
	<stop  offset="0.2512" style="stop-color:#DE0100"/>
	<stop  offset="0.4795" style="stop-color:#D30100"/>
	<stop  offset="0.6989" style="stop-color:#C10100"/>
	<stop  offset="0.9117" style="stop-color:#A70200"/>
	<stop  offset="1" style="stop-color:#9A0200"/>
</radialGradient>
<path class="st1" d="M852.1,486.9c-32.5,57.3-65,114.6-97.5,172c-66.3,0-132.5,0-198.6,0c-4.1,6.1-30,53.9-30.3,55.9
	c0.8,0,1.6,0,2.4,0c83.5,0,167,0,250.4,0.1c2.2,0,3.2-0.8,4.3-2.6c8-13.7,16-27.4,24.1-41.1c35.5-60.7,70.9-121.4,106.5-182
	c1-1.8,1-3,0-4.7c-26.7-46.6-53.3-93.2-80-139.9c-9.6-16.8-19.2-33.5-28.8-50.2c-5.9-10.3-11.8-20.5-17.6-30.9
	c-1.1-2-2.3-2.8-4.7-2.8c-85,0.1-169.9,0.1-254.9,0c-2.2,0-3.4,0.7-4.5,2.6c-20.8,36.1-41.7,72.2-62.5,108.3
	c-6.1,10.6-12.3,21.3-18.4,31.9c-5.1,8.8-10.2,17.6-15.2,26.5c-0.9,1.5-1.8,2.3-3.5,2c-0.6-0.1-1.2,0-1.8,0c-63,0-126.1,0-189.1,0
	c-0.7,0-1.4,0.1-2.1,0c-1.3-0.1-2.1,0.3-2.7,1.6c-0.9,1.8-1.9,3.6-2.9,5.3c-8.3,15.3-16.6,30.5-24.8,45.8c-0.5,0.9-1.3,1.7-1,3
	c1.1,0,2.1,0,3.2,0c83.8,0,167.7,0,251.5,0c0.6,0,1.2-0.1,1.8,0c1.3,0.2,2.1-0.4,2.7-1.5c2.3-4,4.7-8,7-12.1
	C495,422,524.8,370,554.7,317.9c1-1.7,2-2.5,4.1-2.5c64.3,0.1,128.5,0.1,192.8,0c2,0,3.1,0.6,4.1,2.4c6,10.8,12.2,21.5,18.3,32.3
	c11,19.2,22,38.4,33,57.5c14.7,25.7,29.4,51.3,44,77C851.3,485.4,851.7,486.1,852.1,486.9z M748.3,546.6c-1.5,0-2.5,0-3.5,0
	c-35.6,0-71.3,0-106.9,0c-48.5,0-97.1,0-145.6-0.1c-2.1,0-3.3,0.6-4.3,2.5c-9.2,16.1-18.5,32.1-27.7,48.1
	c-22.8,39.7-45.5,79.3-68.2,119c-1,1.8-2.2,2.5-4.3,2.5c-64.3-0.1-128.5-0.1-192.8,0c-1.9,0-3-0.6-3.9-2.2
	c-5.5-9.8-11.1-19.6-16.6-29.3c-19.4-33.9-38.8-67.8-58.2-101.6c-6.8-11.8-13.5-23.6-20.3-35.4c-1.1-1.9-1.2-3.3-0.1-5.2
	c7.9-13.8,15.7-27.6,23.6-41.4c23.6-41.7,47.2-83.4,70.8-125.1c0.6-1,1.2-1.9,1.8-2.9c1.3,0,2.4,0,3.5,0c64.1,0,128.2,0,192.2,0
	c2.1,0,3.3-0.6,4.3-2.5c9.3-17,18.7-34,28-51c0.4-0.7,0.7-1.5,1.3-2.6c-1.2,0-2.1,0-2.9,0c-83.5,0-167,0-250.4-0.1
	c-2.1,0-3.1,0.7-4.1,2.4c-5.2,9.1-10.5,18.1-15.7,27.1c-10.6,18-21.2,36-31.7,54c-27.7,47.3-55.4,94.7-83,142.1
	c-0.5,0.8-0.9,1.7-1.4,2.5c0.6,1.2,1.2,2.2,1.8,3.3c28.7,50.1,57.4,100.2,86,150.4c13.3,23.3,26.7,46.6,39.9,70
	c1,1.8,2.1,2.4,4.1,2.4c85.2-0.1,170.5-0.1,255.7,0c1.9,0,3-0.6,3.9-2.2c15.8-27.4,31.6-54.7,47.4-82.1
	c16.3-28.2,32.6-56.4,48.8-84.6c1-1.8,2.1-2.6,4.1-2.3c0.6,0.1,1.2,0,1.8,0c63.2,0,126.4,0,189.6,0c2.3,0,3.4-0.7,4.5-2.7
	c9-16.7,18-33.4,27.1-50C747.2,548.7,747.6,547.9,748.3,546.6z"/>
<linearGradient id="SVGID_2_" gradientUnits="userSpaceOnUse" x1="198.7004" y1="565.8" x2="914.05" y2="565.8" gradientTransform="matrix(1 0 0 1 0 -78)">
	<stop  offset="0" style="stop-color:#E20100"/>
	<stop  offset="0.2003" style="stop-color:#D10100"/>
	<stop  offset="0.7266" style="stop-color:#A90200"/>
	<stop  offset="1" style="stop-color:#9A0200"/>
</linearGradient>
<path class="st2" d="M852.1,486.9c-0.4-0.8-0.8-1.5-1.2-2.2c-14.7-25.7-29.4-51.3-44-77c-11-19.2-22-38.4-33-57.5
	c-6.1-10.7-12.3-21.5-18.3-32.3c-1-1.8-2.1-2.4-4.1-2.4c-64.3,0.1-128.5,0.1-192.8,0c-2.1,0-3.1,0.8-4.1,2.5
	c-29.8,52-59.7,104.1-89.6,156.1c-2.3,4-4.7,8-7,12.1c-0.6,1.1-1.4,1.7-2.7,1.5c-0.6-0.1-1.2,0-1.8,0c-83.8,0-167.7,0-251.5,0
	c-1,0-2.1,0-3.2,0c-0.4-1.3,0.5-2.1,1-3c8.3-15.3,16.6-30.6,24.8-45.8c1-1.8,2-3.5,2.9-5.3c0.6-1.2,1.4-1.7,2.7-1.6
	c0.7,0.1,1.4,0,2.1,0c63,0,126.1,0,189.1,0c0.6,0,1.2-0.1,1.8,0c1.7,0.3,2.7-0.5,3.5-2c5-8.9,10.1-17.7,15.2-26.5
	c6.1-10.6,12.3-21.3,18.4-31.9c20.8-36.1,41.7-72.2,62.5-108.3c1.1-1.9,2.3-2.6,4.5-2.6c85,0.1,169.9,0.1,254.9,0
	c2.4,0,3.6,0.7,4.7,2.8c5.8,10.3,11.7,20.6,17.6,30.9c9.6,16.7,19.3,33.5,28.8,50.2c26.7,46.6,53.3,93.3,80,139.9c1,1.8,1,3,0,4.7
	c-35.5,60.6-71,121.3-106.5,182c-8,13.7-16.1,27.4-24.1,41.1c-1,1.8-2.1,2.6-4.3,2.6c-83.5-0.1-167-0.1-250.4-0.1
	c-0.8,0-1.6,0-2.4,0c0.3-2,26.3-49.7,30.3-55.9c66.1,0,132.2,0,198.6,0C787.1,601.5,819.6,544.2,852.1,486.9z"/>
<linearGradient id="SVGID_3_" gradientUnits="userSpaceOnUse" x1="748.3" y1="624.4" x2="32.1" y2="624.4" gradientTransform="matrix(1 0 0 1 0 -78)">
	<stop  offset="0" style="stop-color:#E20100"/>
	<stop  offset="0.1916" style="stop-color:#D20100"/>
	<stop  offset="0.7242" style="stop-color:#A90200"/>
	<stop  offset="1" style="stop-color:#9A0200"/>
</linearGradient>
<path class="st3" d="M748.3,546.6c-0.7,1.3-1.1,2.1-1.5,3c-9,16.7-18.1,33.3-27.1,50c-1,2-2.2,2.7-4.5,2.7
	c-63.2-0.1-126.4,0-189.6,0c-0.6,0-1.2,0.1-1.8,0c-2-0.3-3.1,0.6-4.1,2.3c-16.2,28.2-32.5,56.4-48.8,84.6
	c-15.8,27.4-31.6,54.7-47.4,82.1c-1,1.7-2,2.2-3.9,2.2c-85.2,0-170.5,0-255.7,0c-2,0-3.1-0.7-4.1-2.4c-13.3-23.3-26.6-46.6-39.9-70
	c-28.7-50.1-57.4-100.2-86-150.4c-0.6-1.1-1.2-2.1-1.8-3.3c0.5-0.9,0.9-1.7,1.4-2.5c27.7-47.4,55.3-94.7,83-142.1
	c10.5-18,21.2-36,31.7-54c5.3-9,10.6-18,15.7-27.1c1-1.7,2-2.4,4.1-2.4c83.5,0.1,167,0.1,250.4,0.1c0.9,0,1.7,0,2.9,0
	c-0.5,1.1-0.9,1.9-1.3,2.6c-9.3,17-18.7,34-28,51c-1,1.9-2.2,2.5-4.3,2.5c-64.1-0.1-128.2,0-192.2,0c-1.1,0-2.3,0-3.5,0
	c-0.6,1-1.2,2-1.8,2.9c-23.6,41.7-47.2,83.4-70.8,125.1c-7.8,13.8-15.6,27.6-23.6,41.4c-1.1,1.9-1.1,3.3,0.1,5.2
	c6.8,11.8,13.5,23.6,20.3,35.4c19.4,33.9,38.8,67.8,58.2,101.6c5.6,9.7,11.2,19.5,16.6,29.3c0.9,1.7,2,2.2,3.9,2.2
	c64.3,0,128.5,0,192.8,0c2.1,0,3.3-0.7,4.3-2.5c22.7-39.7,45.4-79.4,68.2-119c9.2-16.1,18.5-32.1,27.7-48.1c1.1-1.9,2.2-2.5,4.3-2.5
	c48.5,0.1,97.1,0,145.6,0.1c35.6,0,71.3,0,106.9,0C745.8,546.6,746.8,546.6,748.3,546.6z"/>
</svg>
